<svg version="1.1" preserveAspectRatio="none" xmlns="http://www.w3.org/2000/svg" width="500" height="500" viewBox="0 0 500 500"><rect width="100%" height="100%" fill="#232128" fill-opacity="1"/><svg viewBox="13.7725 134.0137 464.9077 110" width="333" height="78.7898329066178" x="83.5px" y="210.6051px" xmlns="http://www.w3.org/2000/svg" xmlns:xlink="http://www.w3.org/1999/xlink" preserveAspectRatio="none"><defs></defs><style>.companyName {fill:#A5AEAD;fill-opacity:1;}.icon1 {fill:#A4747F;fill-opacity:1;}.icon2 {fill:#8CA6A2;fill-opacity:1;}.icon3 {fill:#5E718C;fill-opacity:1;}.icon3-str {stroke:#5E718C;stroke-opacity:1;}</style><defs></defs><g opacity="1" transform="rotate(0 13.7725 134.0137)">
<svg width="87.3283" height="110" x="13.7725" y="134.0137" version="1.1" preserveAspectRatio="none" viewBox="82.85208129882812 38 346.13763427734375 435.9999694824219">
  <g transform="matrix(1 0 0 1 0 0)"><defs><g id="id-IptOCySn0"><path d="M257.9,283.1l8.8,4.2l26.6,12.7l7.6,3.6l7.6,3.6l55-30.4c4.1-2.3,6.4-6.6,6-11.3c-0.4-4.7-3.4-8.6-7.8-10.2l-15-5.3  c-4.9-1.7-10.2-1.8-15,0l-82.6,29L257.9,283.1z"></path><path d="M418,323.1l-6.3-1c-9.1-1.4-18.5,0.4-26.5,5l-30,17.5l-61.5-29.3l0.1,0l-7.6-3.6l-7.6-3.6l-30.2-14.4l-8.8-4.2l-0.3-0.1  l-8.5-4l-5.8-2.7c-0.1,0-0.1-0.1-0.2-0.1l-94.4-45.1c-16.5-7.9-36.4-0.9-44.3,15.7c-7.9,16.5-0.9,36.4,15.7,44.3l98.1,46.8l12,102.7  c0.8,6.9,4.7,13,10.7,16.6l14.2,8.7c1.9,1.2,4,1.7,6.1,1.7c1.8,0,3.7-0.4,5.4-1.3c3.7-1.9,6.1-5.5,6.3-9.7l6.2-89.6l80.8,38.5  c11.4,5.5,24.3,6.1,36.3,1.9c12-4.2,21.6-12.9,27-24.3l22.8-47.8c1.8-3.8,1.7-8.1-0.2-11.8C425.6,326.2,422.1,323.7,418,323.1z   M256.9,328.5l-0.6,6.9c-0.3,3.6-3.3,6.2-6.8,6.2c-0.2,0-0.4,0-0.6,0c-3.8-0.3-6.5-3.7-6.2-7.4l0.6-6.9c0.3-3.8,3.7-6.5,7.4-6.2  C254.4,321.4,257.2,324.7,256.9,328.5z M228.1,314.8l-0.6,6.9c-0.3,3.6-3.3,6.2-6.8,6.2c-0.2,0-0.4,0-0.6,0  c-3.8-0.3-6.5-3.7-6.2-7.4l0.6-6.9c0.3-3.8,3.7-6.5,7.4-6.2C225.7,307.7,228.5,311,228.1,314.8z M199.4,301l-0.6,6.9  c-0.3,3.6-3.3,6.2-6.8,6.2c-0.2,0-0.4,0-0.6,0c-3.8-0.3-6.5-3.7-6.2-7.4l0.6-6.9c0.3-3.8,3.7-6.5,7.4-6.2  C196.9,294,199.7,297.3,199.4,301z M170.6,287.3l-0.6,6.9c-0.3,3.6-3.3,6.2-6.8,6.2c-0.2,0-0.4,0-0.6,0c-3.8-0.3-6.5-3.7-6.2-7.4  l0.6-6.9c0.3-3.8,3.7-6.5,7.4-6.2C168.2,280.2,170.9,283.6,170.6,287.3z"></path><path d="M132.1,127.2c0,24.7,20.1,44.8,44.8,44.8c24.7,0,44.8-20.1,44.8-44.8c0-24.7-20.1-44.8-44.8-44.8  C152.1,82.4,132.1,102.5,132.1,127.2z"></path><path d="M183.7,55.1V44.8c0-3.8-3.1-6.8-6.8-6.8c-3.8,0-6.8,3.1-6.8,6.8v10.3c0,3.8,3.1,6.8,6.8,6.8  C180.6,61.9,183.7,58.9,183.7,55.1z"></path><path d="M170,199.4v10.3c0,3.8,3.1,6.8,6.8,6.8c3.8,0,6.8-3.1,6.8-6.8v-10.3c0-3.8-3.1-6.8-6.8-6.8C173.1,192.5,170,195.6,170,199.4  z"></path><path d="M259.2,120.4H249c-3.8,0-6.8,3.1-6.8,6.8c0,3.8,3.1,6.8,6.8,6.8h10.3c3.8,0,6.8-3.1,6.8-6.8  C266.1,123.5,263,120.4,259.2,120.4z"></path><path d="M104.7,134.1c3.8,0,6.8-3.1,6.8-6.8c0-3.8-3.1-6.8-6.8-6.8H94.4c-3.8,0-6.8,3.1-6.8,6.8c0,3.8,3.1,6.8,6.8,6.8H104.7z"></path><path d="M239.9,64.1c-2.7-2.7-7-2.7-9.7,0l-7.3,7.3c-2.7,2.7-2.7,7,0,9.7c1.3,1.3,3.1,2,4.8,2c1.7,0,3.5-0.7,4.8-2l7.3-7.3  C242.6,71.1,242.6,66.8,239.9,64.1z"></path><path d="M113.7,190.3c1.3,1.3,3.1,2,4.8,2c1.7,0,3.5-0.7,4.8-2l7.3-7.3c2.7-2.7,2.7-7,0-9.7c-2.7-2.7-7-2.7-9.7,0l-7.3,7.3  C111.1,183.3,111.1,187.7,113.7,190.3z"></path><path d="M232.7,173.4c-2.7-2.7-7-2.7-9.7,0c-2.7,2.7-2.7,7,0,9.7l7.3,7.3c1.3,1.3,3.1,2,4.8,2c1.7,0,3.5-0.7,4.8-2  c2.7-2.7,2.7-7,0-9.7L232.7,173.4z"></path><path d="M123.4,64.1c-2.7-2.7-7-2.7-9.7,0c-2.7,2.7-2.7,7,0,9.7l7.3,7.3c1.3,1.3,3.1,2,4.8,2c1.7,0,3.5-0.7,4.8-2  c2.7-2.7,2.7-7,0-9.7L123.4,64.1z"></path></g></defs><use class="icon1" xlink:href="#id-IptOCySn0"></use></g>
</svg>
</g><g opacity="1" transform="rotate(0 119.1008 164.0137)">
<svg width="359.5794" height="50" x="119.1008" y="164.0137" version="1.1" preserveAspectRatio="none" viewBox="1.8945 -29.1406 263.9258 36.6992">
  <g transform="matrix(1 0 0 1 0 0)" class="companyName"><path id="id-D6z1nYkh12" d="M10.41-27.48L11.11-27.48Q16.33-27.48 18.13-26.56L18.13-26.56Q19.47-25.88 19.47-23.05Q19.47-20.21 18.52-20.21L18.52-20.21Q17.73-20.21 15.96-21.87Q14.18-23.52 13.26-24.02Q12.34-24.53 10.87-24.53Q9.39-24.53 8.35-23.57Q7.30-22.62 7.30-21.29L7.30-21.29Q7.30-19.51 9.26-18.11L9.26-18.11Q10.23-17.40 13.77-15.82Q17.30-14.24 18.81-12.71L18.81-12.71Q20.94-10.55 20.94-7.83L20.94-7.83Q20.94-2.17 15.33-0.20L15.33-0.20Q13.67 0.39 11.93 0.39L11.93 0.39L11.23 0.39Q9.08 0.39 6.46-0.10Q3.85-0.59 3.16-1.05L3.16-1.05Q1.89-1.93 1.89-5.14L1.89-5.14L1.89-5.80Q1.89-7.87 3.01-7.87L3.01-7.87Q3.79-7.87 5.49-5.88Q7.19-3.89 8.35-3.22Q9.51-2.56 11.32-2.56Q13.13-2.56 14.36-3.59Q15.59-4.63 15.59-5.84L15.59-5.84Q15.59-7.66 14.49-8.83Q13.40-10 10.14-11.50Q6.88-13.01 5.63-13.93L5.63-13.93Q2.19-16.46 2.19-20.02L2.19-20.02Q2.19-20.76 2.34-21.56L2.34-21.56Q2.99-24.92 6.66-26.64L6.66-26.64Q8.46-27.48 10.41-27.48L10.41-27.48Z M57.27-1.80L57.27-1.80Q57.27 0.02 52.09 0.02L52.09 0.02Q50.39 0.02 49.75-0.38Q49.10-0.78 49.10-1.78L49.10-1.78L49.36-3.03Q49.73-5 49.73-9.03Q49.73-13.07 49.04-14.38Q48.36-15.70 46.35-15.70L46.35-15.70Q45.66-15.70 44.86-15.17Q44.06-14.63 43.66-13.71Q43.26-12.79 43.26-8.97Q43.26-5.16 43.49-4.43Q43.71-3.71 44.49-2.69Q45.27-1.66 45.27-1.08Q45.27-0.51 44.52-0.25Q43.77 0 40.57 0Q37.36 0 36.87-0.33Q36.37-0.66 36.37-1.54L36.37-1.54Q36.37-1.84 37.02-2.69Q37.68-3.54 37.86-4.24Q38.05-4.94 38.05-8.75Q38.05-12.56 37.42-14.04Q36.80-15.53 35.14-15.53Q33.48-15.53 32.32-14.00L32.32-14.00Q31.52-12.95 31.52-11.07Q31.52-9.20 31.70-6.70Q31.88-4.20 32.09-3.18Q32.30-2.17 32.30-1.46Q32.30-0.76 31.68-0.38Q31.05 0 28.71 0L28.71 0Q24.18 0 24.18-1.64L24.18-1.64Q24.18-2.17 25.06-3.15Q25.94-4.14 26.05-4.58Q26.17-5.02 26.17-8.87Q26.17-12.71 25.66-14.18L25.66-14.18Q25.53-14.55 24.89-15.56Q24.26-16.56 24.26-17.09L24.26-17.09Q24.26-17.83 25.51-18.20L25.51-18.20Q27.73-18.87 29.47-18.87L29.47-18.87Q30.04-18.87 30.84-18.04Q31.64-17.21 31.86-17.21L31.86-17.21L32.48-17.56Q33.63-18.22 33.96-18.38L33.96-18.38Q35.76-19.20 37.36-19.20Q38.96-19.20 39.75-18.85Q40.53-18.50 41.45-17.83Q42.36-17.17 42.82-17.17Q43.28-17.17 45.35-18.13Q47.42-19.08 49.22-19.08L49.22-19.08Q52.46-19.08 53.98-16.21L53.98-16.21Q55-14.34 55-6.31L55-6.31Q55-4.28 55.22-3.82Q55.45-3.36 56.36-2.72Q57.27-2.09 57.27-1.80Z M70.96-7.99L70.96-7.99Q70.96-8.87 70.41-8.87L70.41-8.87L69.90-8.87Q69.41-8.77 69.16-8.77L69.16-8.77Q67.38-8.77 66.17-7.73Q64.96-6.70 64.96-5.39L64.96-5.39L64.96-4.94Q64.96-3.95 65.59-3.22Q66.21-2.50 67.11-2.50L67.11-2.50L67.73-2.50Q69.02-2.50 69.94-3.30Q70.86-4.10 70.86-4.86L70.86-4.86Q70.94-5.25 70.94-5.37L70.94-5.37L70.98-5.68L70.98-6.52L71.00-6.84L71.00-7.70Q70.96-7.89 70.96-7.99ZM78.89-1.80L78.89-1.80L78.89-1.50Q78.89-0.84 77.42-0.26Q75.96 0.31 73.95 0.31L73.95 0.31Q72.71 0.31 71.82-0.80L71.82-0.80Q71.33-1.43 71.05-1.43L71.05-1.43Q70.78-1.45 70.12-0.98L70.12-0.98Q67.89 0.55 65.31 0.55L65.31 0.55Q65.29 0.55 65.27 0.57L65.27 0.57Q62.73 0.57 61.21-0.74Q59.69-2.05 59.67-4.41L59.67-4.41Q59.67-9.49 67.48-10.80L67.48-10.80Q69.36-11.09 69.73-11.25L69.73-11.25Q70.86-11.72 70.86-13.34Q70.86-14.96 70.13-15.67Q69.39-16.39 68.42-16.39L68.42-16.39Q66.88-16.39 65.63-14.74Q64.38-13.09 62.71-13.09L62.71-13.09Q61.74-13.09 61.24-13.62Q60.74-14.16 60.74-14.73L60.74-14.73Q60.74-16.45 62.54-17.46L62.54-17.46Q65.53-19.14 68.87-19.14L68.87-19.14L69.88-19.14Q71.56-19.14 73.10-18.43Q74.63-17.71 75.47-16.25Q76.31-14.79 76.31-9.71Q76.31-4.63 76.63-3.86Q76.95-3.09 77.92-2.72Q78.89-2.36 78.89-1.80Z M98.30-18.77L98.30-18.77Q102.13-18.77 102.15-17.66L102.15-17.66Q102.15-17.01 99.71-15.55L99.71-15.55Q94.82-12.60 94.82-10.76L94.82-10.76Q94.82-10.10 98.81-5.55L98.81-5.55Q100.20-3.96 101.85-2.71Q103.50-1.46 103.50-0.97Q103.50-0.47 103.02-0.22Q102.54 0.02 99.51 0.02L99.51 0.02L98.75 0.02Q95.82 0.02 94.86-0.94L94.86-0.94Q94.30-1.50 94.03-2.90Q93.77-4.30 93.14-5.27L93.14-5.27Q91.72-7.52 90.43-7.52L90.43-7.52Q89.63-7.52 89.63-5.63Q89.63-3.73 90.43-2.17L90.43-2.17Q90.78-1.48 90.78-1.33L90.78-1.33Q90.78-0.47 89.49-0.16L89.49-0.16Q88.83 0 86.36 0Q83.89 0 83.13-0.20L83.13-0.20Q81.99-0.49 81.99-1.21L81.99-1.21Q81.99-1.62 82.74-2.86Q83.50-4.10 83.61-4.77L83.61-4.77Q83.91-6.45 83.91-15.29Q83.91-24.14 83.67-24.76Q83.44-25.37 82.29-25.98Q81.15-26.58 81.15-27.31Q81.15-28.05 82.21-28.42L82.21-28.42Q84.22-29.14 86.62-29.14L86.62-29.14L87.30-29.14Q88.54-29.14 88.89-27.71L88.89-27.71Q89.14-26.70 89.14-20.03Q89.14-13.36 89.20-12.93L89.20-12.93Q89.38-11.56 90.02-11.56L90.02-11.56Q90.90-11.56 93.05-13.95L93.05-13.95Q94.38-15.41 94.38-16.45L94.38-16.45L94.10-17.62Q94.10-18.28 94.91-18.53Q95.72-18.77 98.30-18.77Z M150.53-26.56L150.53-26.56Q153.30-26.56 153.30-25.16L153.30-25.16Q153.30-24.65 151.99-22.11Q150.68-19.57 150.25-18.20L150.25-18.20L149.34-15.04Q146.56-5.64 145.90-3.59L145.90-3.59L145.57-2.58Q144.98-1.31 143.63-0.59L143.63-0.59Q143.01-0.25 142.17-0.25Q141.33-0.25 140.72-0.84Q140.12-1.43 139.50-2.79Q138.89-4.16 136.88-10.11Q134.88-16.05 134.71-16.05L134.71-16.05L134.38-15.47L134.06-14.43Q133.65-13.05 133.42-12.32L133.42-12.32L132.44-9.22Q130.55-3.16 130.02-2.20Q129.49-1.23 128.75-0.66Q128.01-0.10 127.36-0.10L127.36-0.10Q125.49-0.10 124.47-1.88L124.47-1.88Q124.12-2.48 120.78-13.18L120.78-13.18L120.45-14.22Q119.49-17.30 119.14-18.38L119.14-18.38L118.81-19.39Q118.16-21.23 117.02-23.00Q115.88-24.77 115.88-25.27Q115.88-25.78 116.46-26.26Q117.03-26.74 118.05-26.74L118.05-26.74Q122.70-26.74 124.55-25.45L124.55-25.45Q125.86-24.55 125.86-21.72L125.86-21.72L125.82-20.88Q125.78-20.02 125.78-19.10L125.78-19.10Q125.78-16.88 126.86-13.58Q127.93-10.29 128.81-10.29L128.81-10.29L129.10-10.55Q130.12-11.89 130.80-14.96Q131.48-18.03 131.48-20.82L131.48-20.82L131.39-21.64L131.33-22.42Q131.33-24.69 132.85-25.66L132.85-25.66Q133.63-26.17 135.75-26.17Q137.87-26.17 138.95-24.53L138.95-24.53Q139.67-23.44 139.67-21.31Q139.67-19.18 142.42-11.35L142.42-11.35Q142.83-10.16 143.03-10.16L143.03-10.16Q144.30-11.17 144.77-12.75L144.77-12.75Q146.17-17.44 146.17-19.79L146.17-19.79Q146.17-20.37 146.09-21.45L146.09-21.45L146.02-22.25L145.86-22.97L145.70-23.59Q145.70-25.10 147.24-25.83Q148.77-26.56 150.53-26.56Z M166.02-7.99L166.02-7.99Q166.02-8.87 165.47-8.87L165.47-8.87L164.96-8.87Q164.47-8.77 164.22-8.77L164.22-8.77Q162.44-8.77 161.23-7.73Q160.02-6.70 160.02-5.39L160.02-5.39L160.02-4.94Q160.02-3.95 160.64-3.22Q161.27-2.50 162.17-2.50L162.17-2.50L162.79-2.50Q164.08-2.50 165-3.30Q165.92-4.10 165.92-4.86L165.92-4.86Q166.00-5.25 166.00-5.37L166.00-5.37L166.04-5.68L166.04-6.52L166.05-6.84L166.05-7.70Q166.02-7.89 166.02-7.99ZM173.95-1.80L173.95-1.80L173.95-1.50Q173.95-0.84 172.48-0.26Q171.02 0.31 169.00 0.31L169.00 0.31Q167.77 0.31 166.88-0.80L166.88-0.80Q166.39-1.43 166.11-1.43L166.11-1.43Q165.84-1.45 165.18-0.98L165.18-0.98Q162.95 0.55 160.37 0.55L160.37 0.55Q160.35 0.55 160.33 0.57L160.33 0.57Q157.79 0.57 156.27-0.74Q154.75-2.05 154.73-4.41L154.73-4.41Q154.73-9.49 162.54-10.80L162.54-10.80Q164.41-11.09 164.79-11.25L164.79-11.25Q165.92-11.72 165.92-13.34Q165.92-14.96 165.19-15.67Q164.45-16.39 163.48-16.39L163.48-16.39Q161.93-16.39 160.68-14.74Q159.43-13.09 157.77-13.09L157.77-13.09Q156.80-13.09 156.30-13.62Q155.80-14.16 155.80-14.73L155.80-14.73Q155.80-16.45 157.60-17.46L157.60-17.46Q160.59-19.14 163.93-19.14L163.93-19.14L164.94-19.14Q166.62-19.14 168.15-18.43Q169.69-17.71 170.53-16.25Q171.37-14.79 171.37-9.71Q171.37-4.63 171.69-3.86Q172.01-3.09 172.98-2.72Q173.95-2.36 173.95-1.80Z M193.36-18.77L193.36-18.77Q197.19-18.77 197.21-17.66L197.21-17.66Q197.21-17.01 194.77-15.55L194.77-15.55Q189.88-12.60 189.88-10.76L189.88-10.76Q189.88-10.10 193.87-5.55L193.87-5.55Q195.25-3.96 196.90-2.71Q198.55-1.46 198.55-0.97Q198.55-0.47 198.08-0.22Q197.60 0.02 194.57 0.02L194.57 0.02L193.81 0.02Q190.88 0.02 189.92-0.94L189.92-0.94Q189.36-1.50 189.09-2.90Q188.83-4.30 188.20-5.27L188.20-5.27Q186.78-7.52 185.49-7.52L185.49-7.52Q184.69-7.52 184.69-5.63Q184.69-3.73 185.49-2.17L185.49-2.17Q185.84-1.48 185.84-1.33L185.84-1.33Q185.84-0.47 184.55-0.16L184.55-0.16Q183.89 0 181.42 0Q178.95 0 178.18-0.20L178.18-0.20Q177.05-0.49 177.05-1.21L177.05-1.21Q177.05-1.62 177.80-2.86Q178.55-4.10 178.67-4.77L178.67-4.77Q178.96-6.45 178.96-15.29Q178.96-24.14 178.73-24.76Q178.50-25.37 177.35-25.98Q176.21-26.58 176.21-27.31Q176.21-28.05 177.27-28.42L177.27-28.42Q179.28-29.14 181.68-29.14L181.68-29.14L182.36-29.14Q183.59-29.14 183.95-27.71L183.95-27.71Q184.20-26.70 184.20-20.03Q184.20-13.36 184.26-12.93L184.26-12.93Q184.43-11.56 185.08-11.56L185.08-11.56Q185.96-11.56 188.11-13.95L188.11-13.95Q189.43-15.41 189.43-16.45L189.43-16.45L189.16-17.62Q189.16-18.28 189.97-18.53Q190.78-18.77 193.36-18.77Z M211.95-7.99L211.95-7.99Q211.95-8.87 211.41-8.87L211.41-8.87L210.90-8.87Q210.41-8.77 210.16-8.77L210.16-8.77Q208.38-8.77 207.17-7.73Q205.96-6.70 205.96-5.39L205.96-5.39L205.96-4.94Q205.96-3.95 206.58-3.22Q207.21-2.50 208.11-2.50L208.11-2.50L208.73-2.50Q210.02-2.50 210.94-3.30Q211.86-4.10 211.86-4.86L211.86-4.86Q211.93-5.25 211.93-5.37L211.93-5.37L211.97-5.68L211.97-6.52L211.99-6.84L211.99-7.70Q211.95-7.89 211.95-7.99ZM219.88-1.80L219.88-1.80L219.88-1.50Q219.88-0.84 218.42-0.26Q216.95 0.31 214.94 0.31L214.94 0.31Q213.71 0.31 212.81-0.80L212.81-0.80Q212.32-1.43 212.05-1.43L212.05-1.43Q211.78-1.45 211.11-0.98L211.11-0.98Q208.89 0.55 206.31 0.55L206.31 0.55Q206.29 0.55 206.27 0.57L206.27 0.57Q203.73 0.57 202.21-0.74Q200.68-2.05 200.66-4.41L200.66-4.41Q200.66-9.49 208.48-10.80L208.48-10.80Q210.35-11.09 210.72-11.25L210.72-11.25Q211.86-11.72 211.86-13.34Q211.86-14.96 211.12-15.67Q210.39-16.39 209.41-16.39L209.41-16.39Q207.87-16.39 206.62-14.74Q205.37-13.09 203.71-13.09L203.71-13.09Q202.73-13.09 202.24-13.62Q201.74-14.16 201.74-14.73L201.74-14.73Q201.74-16.45 203.54-17.46L203.54-17.46Q206.52-19.14 209.86-19.14L209.86-19.14L210.88-19.14Q212.56-19.14 214.09-18.43Q215.63-17.71 216.46-16.25Q217.30-14.79 217.30-9.71Q217.30-4.63 217.63-3.86Q217.95-3.09 218.92-2.72Q219.88-2.36 219.88-1.80Z M238.28-4.16L238.28-4.16Q239.04-4.16 239.04-3.12Q239.04-2.07 236.58-0.84Q234.12 0.39 231.78 0.39L231.78 0.39L231.33 0.39Q229.39 0.39 227.66-0.37L227.66-0.37Q224.26-1.86 222.97-5.43L222.97-5.43Q222.34-7.19 222.34-8.93L222.34-8.93L222.34-9.39Q222.34-13.34 224.94-16.23L224.94-16.23Q226.25-17.68 228.12-18.45Q229.98-19.22 231.95-19.22L231.95-19.22Q235.66-19.22 237.68-18.11L237.68-18.11Q238.87-17.44 238.87-15.94L238.87-15.94Q238.87-13.22 237.15-13.22L237.15-13.22Q236.09-13.22 234.66-14.77Q233.22-16.31 231.62-16.31L231.62-16.31Q229.69-16.31 228.44-13.91L228.44-13.91Q227.73-12.54 227.71-9.59L227.71-9.59Q227.71-9.55 227.71-9.51L227.71-9.51Q227.71-6.68 229.18-4.84L229.18-4.84Q230.66-2.99 232.95-2.99L232.95-2.99Q234.22-2.99 236.06-3.57Q237.91-4.16 238.28-4.16Z M245.20-24.22L245.20-24.22L245.20-24.67Q245.25-24.96 245.25-25.20L245.25-25.20Q245.25-26.11 246.13-26.99Q247.01-27.87 247.77-27.87L247.77-27.87L248.34-27.87Q249.34-27.87 250.11-26.96Q250.88-26.05 250.88-25.55L250.88-25.55L250.94-25.04L250.94-24.82Q250.94-23.30 250.01-22.48Q249.08-21.66 247.58-21.66L247.58-21.66L247.40-21.62L247.07-21.62Q246.35-21.62 245.77-22.31Q245.20-23.01 245.20-24.22ZM250.88-8.91L250.88-5.92Q250.88-1.66 250.63 0.25Q250.37 2.17 249.50 3.76Q248.63 5.35 246.73 6.46Q244.82 7.56 242.87 7.56Q240.92 7.56 240.92 6.00L240.92 6.00Q240.92 5.59 241.41 4.88Q241.89 4.18 243.32 3.76Q244.75 3.34 245.23 1.93L245.23 1.93Q245.61 0.86 245.61-5.90Q245.61-12.66 245.38-13.75Q245.16-14.84 244.15-16.20Q243.14-17.56 243.14-17.64L243.14-17.64Q243.14-18.24 244.26-18.61L244.26-18.61Q246.31-19.30 248.73-19.30L248.73-19.30L249.08-19.30Q250.37-19.30 250.55-18.05L250.55-18.05Q250.88-15.78 250.88-8.91L250.88-8.91Z M257.19-24.82L257.19-25.33Q257.19-26.46 258.08-27.25Q258.96-28.03 260-28.03L260-28.03L260.63-28.03Q260.92-27.97 261.11-27.97L261.11-27.97Q262.05-27.97 262.77-27.13Q263.50-26.29 263.50-25.53L263.50-25.53L263.50-25.02Q263.46-24.82 263.46-24.73L263.46-24.73Q263.46-23.91 262.54-23.13Q261.62-22.34 260.51-22.34L260.51-22.34L259.90-22.34Q258.81-22.34 258.02-23.04Q257.23-23.73 257.23-24.63L257.23-24.63L257.19-24.82ZM260.90 0.08L260.90 0.08L259.04 0.08Q256.45 0.08 255.93-0.07Q255.41-0.21 255.41-0.91Q255.41-1.60 256.39-2.58Q257.36-3.55 257.62-4.54Q257.87-5.53 257.87-9.68Q257.87-13.83 257.66-14.57Q257.44-15.31 256.32-15.85Q255.20-16.39 255.20-17.14Q255.20-17.89 256.23-18.24L256.23-18.24Q258.57-19.02 261.41-19.02L261.41-19.02L261.70-19.02Q262.83-19.02 263.01-18.07L263.01-18.07Q263.11-17.52 263.11-11.51Q263.11-5.51 263.37-4.48Q263.63-3.46 264.73-2.30Q265.82-1.15 265.82-0.86L265.82-0.86L265.82-0.63Q265.82 0.08 260.90 0.08Z"/></g>
</svg>
</g></svg></svg>