<svg version="1.1" preserveAspectRatio="none" xmlns="http://www.w3.org/2000/svg" width="500" height="500" viewBox="0 0 500 500"><rect width="100%" height="100%" fill="#000000" fill-opacity="1"/><svg viewBox="13.0997 60.0429 487.8771 301.6402" width="333" height="205.88420034471795" x="83.5px" y="147.0579px" xmlns="http://www.w3.org/2000/svg" xmlns:xlink="http://www.w3.org/1999/xlink" preserveAspectRatio="none"><defs></defs><style>.aa2O-D20rgJ0filter-floo {flood-color:#F539BD;flood-opacity:1;}.aHsFB6mEE6colors-1 {fill:#F539B3;fill-opacity:1;}.aHsFB6mEE6colors-2 {fill:#F539BD;fill-opacity:1;}.ai0NrGVRvc0filter-floo {flood-color:#F3F3F3;flood-opacity:0.91;}.aRWrrEA-PR0filter-floo {flood-color:#E9B0D6;flood-opacity:0.5;}.atUk6sjh6M0filter-floo {flood-color:#FFC7C7;flood-opacity:0.89;}.companyName {fill:#FBE1EF;fill-opacity:1;}.icon2 {fill:#F539B3;fill-opacity:1;}.icon3 {fill:#F539BD;fill-opacity:1;}.icon3-str {stroke:#F539BD;stroke-opacity:1;}.shape-floo {flood-color:#2525CE;flood-opacity:1;}</style><defs>
      <filter
        x="13.0997"
        y="169.6831"
        width="487.8771"
        height="192"
        id="ikYEXSHZT"
        filterUnits="userSpaceOnUse"
        primitiveUnits="userSpaceOnUse"
        color-interpolation-filters="sRGB">
        
    <feGaussianBlur in="SourceGraphic" stdDeviation="7"/>
    <feOffset dx="2.4630255792620215" dy="2.4630255792620215" result="Z-kKTomydTh"/>
    <feFlood flood-color="#2525CE" flood-opacity="1" in="Z-kKTomydTh" />
    <feComposite  in2="Z-kKTomydTh" operator="in" result="zMJ4Z5DJK-E"/><feMerge result="bVL2-EtQDvz"><feMergeNode in="zMJ4Z5DJK-E" /><feMergeNode in="SourceGraphic" /></feMerge><feGaussianBlur  result="jx8WAI9trt7" stdDeviation="10" />
      </filter>
      <filter
        x="49.6265"
        y="206.2201"
        width="409.8975"
        height="114"
        id="tUk6sjh6M"
        filterUnits="userSpaceOnUse"
        primitiveUnits="userSpaceOnUse"
        color-interpolation-filters="sRGB">
        
    <feGaussianBlur in="SourceGraphic" stdDeviation="4"/>
    <feOffset dx="0" dy="0" result="yehFUcbGxo9"/>
    <feFlood flood-color="#FFC7C7" flood-opacity="0.89" in="yehFUcbGxo9" />
    <feComposite  in2="yehFUcbGxo9" operator="in" result="qtW0bCjPofF"/><feMerge result="OovVhNKqRRL"><feMergeNode in="qtW0bCjPofF" /><feMergeNode in="SourceGraphic" /></feMerge>
      </filter>
      <filter
        x="157.1838"
        y="60.0429"
        width="200.4286"
        height="192"
        id="a2O-D20rgJ"
        filterUnits="userSpaceOnUse"
        primitiveUnits="userSpaceOnUse"
        color-interpolation-filters="sRGB">
        
    <feGaussianBlur in="SourceGraphic" stdDeviation="7"/>
    <feOffset dx="2.8228399746132595" dy="2.8228399746132595" result="a64utAQgVWFI"/>
    <feFlood flood-color="#F539BD" flood-opacity="1" in="a64utAQgVWFI" />
    <feComposite  in2="a64utAQgVWFI" operator="in" result="nistP5u7uua"/><feMerge result="a18q5J5pIAej"><feMergeNode in="nistP5u7uua" /><feMergeNode in="SourceGraphic" /></feMerge><feGaussianBlur  result="p7BIqCc5OT1" stdDeviation="10" />
      </filter>
      <filter
        x="193.361"
        y="96.2201"
        width="122.4286"
        height="114"
        id="i0NrGVRvc"
        filterUnits="userSpaceOnUse"
        primitiveUnits="userSpaceOnUse"
        color-interpolation-filters="sRGB">
        
    <feGaussianBlur in="SourceGraphic" stdDeviation="4"/>
    <feOffset dx="0" dy="0" result="EKBC30yPzuH"/>
    <feFlood flood-color="#F3F3F3" flood-opacity="0.91" in="EKBC30yPzuH" />
    <feComposite  in2="EKBC30yPzuH" operator="in" result="raGWMQyLnjt"/><feMerge result="bfrk-rl0ZTa"><feMergeNode in="raGWMQyLnjt" /><feMergeNode in="SourceGraphic" /></feMerge>
      </filter></defs><defs></defs><g filter="url(#ikYEXSHZT)"><g opacity="1" transform="rotate(0 61.6367 218.2201)">
<svg width="385.8771" height="90" x="61.6367" y="218.2201" version="1.1" preserveAspectRatio="none" viewBox="1.9531 -31.543 218.1446 50.8789">
  <g transform="matrix(1 0 0 1 0 0)" class="icon3"><path id="id-BEGfasMba12" d="M35.43-20.51L35.43-20.51Q35.37-20.23 35.18-20.08Q34.98-19.92 34.75-19.92L34.75-19.92Q34.39-19.92 34.18-20.15Q33.96-20.37 33.96-20.66L33.96-20.66Q33.96-20.96 34.02-21.24Q34.08-21.52 34.08-21.80L34.08-21.80Q34.08-23.22 33.20-24.36Q32.32-25.49 30.71-26.26Q29.10-27.03 26.80-27.44Q24.49-27.85 21.66-27.85L21.66-27.85Q19.49-27.85 17.29-27.57Q15.10-27.29 13.08-26.75Q11.05-26.21 9.30-25.40Q7.54-24.59 6.24-23.53Q4.94-22.46 4.20-21.16Q3.46-19.86 3.46-18.32L3.46-18.32Q3.46-17.13 3.97-16.22Q4.49-15.31 5.39-14.64Q6.29-13.96 7.51-13.49Q8.73-13.01 10.16-12.69Q11.58-12.36 13.13-12.16Q14.67-11.95 16.23-11.82L16.23-11.82L19.24-11.56Q21.48-11.37 23.26-11.15Q25.04-10.94 26.39-10.61L26.39-10.61Q28.63-10.04 29.71-8.98Q30.78-7.93 30.78-6.17L30.78-6.17Q30.78-4.47 29.84-3.18Q28.91-1.89 27.29-1.02Q25.66-0.14 23.50 0.31Q21.33 0.76 18.85 0.76L18.85 0.76Q16.15 0.76 14.11 0.40Q12.07 0.04 10.69-0.40Q9.32-0.84 8.59-1.21Q7.87-1.58 7.81-1.62L7.81-1.62Q7.46-1.82 7.46-2.25L7.46-2.25Q7.46-2.58 7.70-2.78Q7.93-2.99 8.20-2.99L8.20-2.99Q8.42-2.99 8.59-2.87L8.59-2.87Q8.61-2.87 9.27-2.53Q9.92-2.19 11.22-1.78Q12.52-1.37 14.43-1.04Q16.35-0.70 18.89-0.70L18.89-0.70Q21.41-0.70 23.34-1.11Q25.27-1.52 26.59-2.26Q27.91-2.99 28.58-3.97Q29.26-4.96 29.26-6.11L29.26-6.11Q29.26-6.80 29.01-7.29Q28.77-7.79 28.34-8.15Q27.91-8.52 27.31-8.77Q26.72-9.02 26.02-9.20L26.02-9.20Q25.27-9.39 24.42-9.53Q23.57-9.67 22.68-9.77Q21.78-9.86 20.87-9.94Q19.96-10.02 19.08-10.10L19.08-10.10L16.07-10.35Q12.52-10.64 9.87-11.26Q7.23-11.88 5.47-12.84Q3.71-13.81 2.83-15.16Q1.95-16.50 1.95-18.30L1.95-18.30Q1.95-20.14 2.78-21.67Q3.61-23.20 5.05-24.43Q6.48-25.66 8.41-26.57Q10.33-27.48 12.52-28.09Q14.71-28.69 17.05-28.99Q19.39-29.30 21.66-29.30L21.66-29.30Q24.49-29.30 26.59-28.96Q28.69-28.61 30.19-28.08Q31.68-27.54 32.64-26.86Q33.59-26.17 34.18-25.51L34.18-25.51Q35.57-23.89 35.57-21.82L35.57-21.82Q35.57-21.13 35.43-20.51Z M38.09-1.74L38.09-1.74Q38.38-2.32 38.84-3.19Q39.30-4.06 39.79-4.94Q40.29-5.82 40.77-6.60Q41.25-7.38 41.58-7.79L41.58-7.79Q42.15-8.48 42.75-8.77Q43.36-9.06 43.87-9.06L43.87-9.06Q44.38-9.06 44.74-8.85Q45.10-8.63 45.33-8.27Q45.57-7.91 45.68-7.43Q45.80-6.95 45.80-6.41L45.80-6.41Q45.80-6.09 45.77-5.59Q45.74-5.08 45.71-4.49Q45.68-3.91 45.65-3.28Q45.63-2.66 45.61-2.11L45.61-2.11Q45.90-2.70 46.27-3.41Q46.64-4.12 47.02-4.82Q47.40-5.53 47.75-6.14Q48.11-6.76 48.40-7.15L48.40-7.15Q49.24-8.30 49.97-8.69Q50.70-9.08 51.27-9.08L51.27-9.08Q51.93-9.08 52.36-8.84Q52.79-8.59 53.04-8.21Q53.28-7.83 53.38-7.36Q53.48-6.89 53.48-6.46L53.48-6.46Q53.48-5.80 53.38-5.08Q53.28-4.36 53.28-3.36L53.28-3.36Q53.28-2.95 53.32-2.54Q53.36-2.13 53.49-1.82Q53.61-1.50 53.89-1.31Q54.16-1.11 54.63-1.11L54.63-1.11Q55.14-1.11 55.63-1.38Q56.11-1.64 56.56-2.07Q57.01-2.50 57.41-3.05Q57.81-3.59 58.14-4.14Q58.48-4.69 58.73-5.19Q58.98-5.68 59.14-6.04L59.14-6.04Q59.24-6.25 59.41-6.37Q59.59-6.48 59.80-6.48L59.80-6.48Q60.14-6.48 60.34-6.24Q60.55-6.00 60.55-5.72L60.55-5.72Q60.55-5.59 60.49-5.45L60.49-5.45Q60.41-5.29 60.18-4.79Q59.94-4.30 59.55-3.66Q59.16-3.03 58.64-2.32Q58.13-1.62 57.50-1.03Q56.88-0.43 56.15-0.05Q55.43 0.33 54.63 0.33L54.63 0.33Q53.77 0.33 53.23 0.03Q52.70-0.27 52.37-0.78Q52.05-1.29 51.93-1.95Q51.82-2.62 51.82-3.34L51.82-3.34Q51.82-4.30 51.91-5.11Q52.01-5.92 52.01-6.37L52.01-6.37Q52.01-6.86 51.92-7.11Q51.84-7.36 51.71-7.47Q51.58-7.58 51.46-7.59Q51.35-7.60 51.29-7.60L51.29-7.60Q50.82-7.60 50.30-7.08Q49.79-6.56 49.24-5.70Q48.69-4.84 48.12-3.75Q47.54-2.66 46.95-1.52L46.95-1.52Q46.62-0.90 46.40-0.49Q46.17-0.08 45.97 0.16Q45.76 0.39 45.57 0.49Q45.37 0.59 45.14 0.59L45.14 0.59Q44.63 0.59 44.37 0.23Q44.10-0.12 44.10-0.68L44.10-0.68Q44.10-0.98 44.12-1.46Q44.14-1.95 44.16-2.54Q44.18-3.13 44.22-3.75Q44.26-4.38 44.28-4.95Q44.30-5.53 44.32-5.98Q44.34-6.43 44.34-6.66L44.34-6.66Q44.34-7.17 44.16-7.39Q43.98-7.62 43.75-7.62L43.75-7.62Q43.54-7.62 43.27-7.46Q43.01-7.30 42.66-6.86L42.66-6.86Q42.38-6.50 41.96-5.83Q41.54-5.16 41.07-4.34Q40.61-3.52 40.15-2.66Q39.69-1.80 39.36-1.11L39.36-1.11Q38.95-0.29 38.54 0.01Q38.13 0.31 37.73 0.31L37.73 0.31Q37.17 0.31 36.89-0.03Q36.62-0.37 36.62-0.94L36.62-0.94Q36.62-1.00 36.65-1.64Q36.68-2.29 36.72-3.21Q36.76-4.14 36.81-5.20Q36.86-6.25 36.89-7.17L36.89-7.17Q36.91-7.66 36.86-8.07Q36.80-8.48 36.70-8.55L36.70-8.55Q36.54-8.52 36.08-7.83Q35.63-7.15 34.92-5.45L34.92-5.45Q34.82-5.23 34.63-5.12Q34.43-5 34.22-5L34.22-5Q33.89-5 33.69-5.22Q33.50-5.45 33.50-5.74L33.50-5.74Q33.50-5.88 33.55-6.04L33.55-6.04Q34.43-8.13 35.23-9.11Q36.04-10.10 36.80-10.10L36.80-10.10Q37.25-10.10 37.55-9.89Q37.85-9.69 38.03-9.37Q38.20-9.04 38.28-8.63Q38.36-8.22 38.36-7.83L38.36-7.83Q38.36-6.09 38.27-4.65Q38.18-3.20 38.09-1.74Z M74.24-5.45L74.24-5.45Q74.16-5.29 73.92-4.79Q73.67-4.30 73.29-3.65Q72.91-3.01 72.40-2.30Q71.89-1.60 71.27-1.02Q70.64-0.43 69.92-0.05Q69.20 0.33 68.40 0.33L68.40 0.33Q67.27 0.33 66.49-0.39Q65.72-1.11 65.37-2.21L65.37-2.21Q64.71-1.09 63.79-0.44Q62.87 0.21 61.95 0.21L61.95 0.21Q61.23 0.21 60.64-0.05Q60.06-0.31 59.65-0.79Q59.24-1.27 59.01-1.91Q58.79-2.56 58.79-3.32L58.79-3.32Q58.79-4.84 59.31-6.01Q59.82-7.17 60.63-7.95Q61.43-8.73 62.39-9.12Q63.36-9.51 64.26-9.51L64.26-9.51Q64.86-9.51 65.37-9.35Q65.88-9.18 66.24-8.98Q66.60-8.79 66.80-8.62Q66.99-8.46 67.01-8.44L67.01-8.44Q67.23-8.18 67.23-7.91L67.23-7.91Q67.23-7.62 67.01-7.39Q66.80-7.17 66.50-7.17L66.50-7.17Q66.19-7.17 65.98-7.38L65.98-7.38Q65.94-7.42 65.80-7.53Q65.66-7.64 65.43-7.75Q65.20-7.87 64.87-7.96Q64.55-8.05 64.14-8.05L64.14-8.05Q63.54-8.05 62.85-7.77Q62.17-7.50 61.60-6.92Q61.04-6.35 60.65-5.48Q60.27-4.61 60.27-3.42L60.27-3.42Q60.27-3.05 60.35-2.67Q60.43-2.29 60.63-1.97Q60.82-1.66 61.15-1.46Q61.48-1.27 61.97-1.27L61.97-1.27Q62.32-1.27 62.78-1.50Q63.24-1.74 63.66-2.23Q64.08-2.71 64.42-3.46Q64.77-4.20 64.90-5.21L64.90-5.21Q64.94-5.49 65.16-5.67Q65.37-5.86 65.66-5.86L65.66-5.86Q65.94-5.86 66.14-5.64Q66.35-5.43 66.37-5.16L66.37-5.16Q66.39-4.79 66.45-4.11Q66.50-3.44 66.71-2.77Q66.91-2.11 67.32-1.62Q67.73-1.13 68.46-1.13L68.46-1.13Q68.93-1.13 69.38-1.39Q69.84-1.64 70.28-2.06Q70.72-2.48 71.12-3.02Q71.52-3.55 71.86-4.10Q72.19-4.65 72.44-5.16Q72.70-5.66 72.87-6.04L72.87-6.04Q72.97-6.25 73.15-6.37Q73.34-6.48 73.55-6.48L73.55-6.48Q73.89-6.48 74.09-6.24Q74.30-6.00 74.30-5.72L74.30-5.72Q74.30-5.59 74.24-5.45Z M77.81-2.40L77.81-2.40Q78.14-1.66 78.91-1.22Q79.67-0.78 80.63-0.78L80.63-0.78Q80.92-0.78 81.58-0.87Q82.25-0.96 83.12-1.46Q83.98-1.95 84.96-3.03Q85.94-4.10 86.86-6.05L86.86-6.05Q86.95-6.27 87.13-6.38Q87.30-6.48 87.52-6.48L87.52-6.48Q87.85-6.48 88.06-6.25Q88.26-6.02 88.26-5.74L88.26-5.74Q88.26-5.63 88.18-5.43L88.18-5.43Q87.50-4.00 86.66-2.88Q85.82-1.76 84.84-0.97Q83.87-0.18 82.80 0.24Q81.74 0.66 80.63 0.66L80.63 0.66Q79.75 0.66 78.97 0.39Q78.20 0.12 77.65-0.34Q77.09-0.80 76.77-1.38Q76.45-1.95 76.45-2.56L76.45-2.56Q76.45-2.64 76.46-2.77Q76.48-2.91 76.57-3.08Q76.66-3.24 76.83-3.39Q76.99-3.54 77.29-3.63L77.29-3.63Q78.09-3.87 78.76-4.21Q79.43-4.55 79.92-4.98Q80.41-5.41 80.68-5.93Q80.96-6.45 80.96-7.05L80.96-7.05Q80.96-7.58 80.61-7.91Q80.25-8.24 79.75-8.24L79.75-8.24Q79.22-8.24 78.71-7.88Q78.20-7.52 77.72-6.92Q77.25-6.33 76.82-5.56Q76.39-4.79 76.03-3.95Q75.66-3.11 75.39-2.28Q75.12-1.45 74.94-0.74L74.94-0.74Q74.88-0.53 74.81-0.27Q74.75-0.02 74.61 0.21Q74.47 0.43 74.28 0.58Q74.08 0.72 73.77 0.72L73.77 0.72Q73.48 0.72 73.20 0.48Q72.93 0.23 72.93-0.35L72.93-0.35Q72.93-0.47 72.94-1.25Q72.95-2.03 72.97-3.29Q72.99-4.55 73.02-6.18Q73.05-7.81 73.07-9.64Q73.09-11.46 73.13-13.40Q73.16-15.33 73.18-17.17Q73.20-19.00 73.23-20.65Q73.26-22.30 73.28-23.58Q73.30-24.86 73.31-25.67Q73.32-26.48 73.32-26.64L73.32-26.64Q73.32-26.95 73.55-27.16Q73.79-27.36 74.06-27.36L74.06-27.36Q74.38-27.36 74.59-27.16Q74.80-26.95 74.80-26.62L74.80-26.62Q74.80-26.58 74.79-25.85Q74.79-25.12 74.77-23.89Q74.75-22.66 74.72-21.02Q74.69-19.38 74.66-17.53Q74.63-15.68 74.60-13.73Q74.57-11.78 74.54-9.92Q74.51-8.07 74.49-6.39Q74.47-4.71 74.45-3.42L74.45-3.42Q74.77-4.41 75.25-5.52Q75.74-6.62 76.41-7.56Q77.07-8.50 77.90-9.10Q78.73-9.71 79.75-9.71L79.75-9.71Q80.31-9.71 80.80-9.50Q81.29-9.30 81.65-8.94Q82.01-8.57 82.22-8.09Q82.42-7.60 82.42-7.03L82.42-7.03Q82.42-6.15 82.03-5.42Q81.64-4.69 81.00-4.11Q80.35-3.54 79.52-3.11Q78.69-2.68 77.81-2.40Z M129.77-22.27L117.29 0.90Q117.07 1.29 116.64 1.29L116.64 1.29Q116.29 1.29 116.09 1.06Q115.90 0.84 115.90 0.53L115.90 0.53Q115.90 0.49 115.92-0.28Q115.94-1.05 115.94-2.36L115.94-2.36Q115.94-4.02 115.95-5.90Q115.96-7.77 115.90-9.71Q115.84-11.64 115.64-13.55Q115.45-15.47 115.04-17.22Q114.63-18.96 113.96-20.47Q113.30-21.97 112.27-23.08Q111.23-24.18 109.80-24.80Q108.38-25.43 106.45-25.43L106.45-25.43Q104.55-25.43 102.99-24.78Q101.43-24.12 100.30-23.02Q99.18-21.91 98.56-20.44Q97.95-18.96 97.95-17.32L97.95-17.32Q97.95-15.90 98.45-14.70Q98.95-13.50 99.80-12.62Q100.66-11.74 101.81-11.24Q102.95-10.74 104.24-10.74L104.24-10.74Q105.20-10.74 106.00-11.01Q106.80-11.27 107.36-11.58Q107.93-11.89 108.24-12.16Q108.55-12.42 108.57-12.42L108.57-12.42Q108.79-12.64 109.10-12.64L109.10-12.64Q109.39-12.64 109.61-12.43Q109.82-12.23 109.82-11.93L109.82-11.93Q109.82-11.64 109.61-11.43L109.61-11.43Q109.57-11.39 109.17-11.04Q108.77-10.70 108.07-10.31Q107.36-9.92 106.40-9.61Q105.43-9.30 104.26-9.30L104.26-9.30Q102.64-9.30 101.22-9.90Q99.80-10.51 98.75-11.58Q97.70-12.66 97.08-14.13Q96.46-15.61 96.46-17.32L96.46-17.32Q96.46-19.28 97.22-21.02Q97.97-22.75 99.30-24.05Q100.63-25.35 102.43-26.10Q104.24-26.86 106.37-26.86L106.37-26.86Q109.12-26.86 111.02-25.87Q112.91-24.88 114.15-23.23Q115.39-21.58 116.06-19.42Q116.74-17.27 117.05-14.92Q117.36-12.58 117.42-10.21Q117.48-7.83 117.48-5.74L117.48-5.74Q117.48-5.35 117.48-4.90Q117.48-4.45 117.47-4.00Q117.46-3.55 117.45-3.15Q117.44-2.75 117.44-2.50L117.44-2.50L130.53-26.72Q130.70-27.09 131.15-27.09L131.15-27.09Q131.48-27.09 131.69-26.87Q131.89-26.64 131.89-26.35L131.89-26.35Q131.89-26.25 131.78-25.63Q131.66-25.02 131.49-24.00Q131.33-22.99 131.13-21.65Q130.94-20.31 130.77-18.77Q130.61-17.23 130.49-15.56Q130.37-13.89 130.37-12.23L130.37-12.23Q130.37-9.43 130.66-7.28Q130.96-5.12 131.62-3.63Q132.29-2.15 133.37-1.39Q134.45-0.63 136.04-0.63L136.04-0.63Q137.46-0.63 138.75-1.24Q140.04-1.86 141.15-2.93Q142.27-4.00 143.22-5.45Q144.18-6.89 144.95-8.56Q145.72-10.23 146.32-12.03Q146.91-13.83 147.31-15.61Q147.71-17.38 147.92-19.06Q148.13-20.74 148.13-22.15L148.13-22.15Q148.13-24.69 147.55-26.83Q146.97-28.96 145.70-30.31L145.70-30.31Q145.51-30.51 145.51-30.80L145.51-30.80Q145.51-31.11 145.73-31.33Q145.96-31.54 146.25-31.54L146.25-31.54Q146.58-31.54 146.78-31.33L146.78-31.33Q147.52-30.53 148.06-29.52Q148.59-28.52 148.94-27.33Q149.28-26.15 149.44-24.84Q149.61-23.54 149.61-22.13L149.61-22.13Q149.61-19.98 149.20-17.45Q148.79-14.92 147.99-12.37Q147.19-9.82 146.03-7.44Q144.86-5.06 143.35-3.23Q141.84-1.41 140-0.30Q138.16 0.80 136.04 0.80L136.04 0.80Q134.02 0.80 132.66-0.11Q131.29-1.02 130.46-2.72Q129.63-4.43 129.27-6.88Q128.91-9.32 128.91-12.38L128.91-12.38Q128.91-13.65 128.99-15Q129.08-16.35 129.21-17.64Q129.34-18.93 129.48-20.12Q129.63-21.31 129.77-22.27L129.77-22.27Z M165.84-5.45L165.84-5.45Q165.76-5.29 165.52-4.79Q165.27-4.30 164.89-3.65Q164.51-3.01 164.00-2.30Q163.50-1.60 162.87-1.02Q162.25-0.43 161.52-0.05Q160.80 0.33 160 0.33L160 0.33Q158.87 0.33 158.10-0.39Q157.32-1.11 156.97-2.21L156.97-2.21Q156.31-1.09 155.39-0.44Q154.47 0.21 153.55 0.21L153.55 0.21Q152.83 0.21 152.25-0.05Q151.66-0.31 151.25-0.79Q150.84-1.27 150.62-1.91Q150.39-2.56 150.39-3.32L150.39-3.32Q150.39-4.84 150.91-6.01Q151.43-7.17 152.23-7.95Q153.03-8.73 153.99-9.12Q154.96-9.51 155.86-9.51L155.86-9.51Q156.46-9.51 156.97-9.35Q157.48-9.18 157.84-8.98Q158.20-8.79 158.40-8.62Q158.59-8.46 158.61-8.44L158.61-8.44Q158.83-8.18 158.83-7.91L158.83-7.91Q158.83-7.62 158.61-7.39Q158.40-7.17 158.11-7.17L158.11-7.17Q157.79-7.17 157.58-7.38L157.58-7.38Q157.54-7.42 157.40-7.53Q157.27-7.64 157.03-7.75Q156.80-7.87 156.47-7.96Q156.15-8.05 155.74-8.05L155.74-8.05Q155.14-8.05 154.45-7.77Q153.77-7.50 153.20-6.92Q152.64-6.35 152.26-5.48Q151.88-4.61 151.88-3.42L151.88-3.42Q151.88-3.05 151.95-2.67Q152.03-2.29 152.23-1.97Q152.42-1.66 152.75-1.46Q153.09-1.27 153.57-1.27L153.57-1.27Q153.93-1.27 154.38-1.50Q154.84-1.74 155.26-2.23Q155.68-2.71 156.03-3.46Q156.37-4.20 156.50-5.21L156.50-5.21Q156.54-5.49 156.76-5.67Q156.97-5.86 157.27-5.86L157.27-5.86Q157.54-5.86 157.74-5.64Q157.95-5.43 157.97-5.16L157.97-5.16Q157.99-4.79 158.05-4.11Q158.11-3.44 158.31-2.77Q158.52-2.11 158.93-1.62Q159.34-1.13 160.06-1.13L160.06-1.13Q160.53-1.13 160.99-1.39Q161.45-1.64 161.88-2.06Q162.32-2.48 162.72-3.02Q163.13-3.55 163.46-4.10Q163.79-4.65 164.04-5.16Q164.30-5.66 164.47-6.04L164.47-6.04Q164.57-6.25 164.76-6.37Q164.94-6.48 165.16-6.48L165.16-6.48Q165.49-6.48 165.69-6.24Q165.90-6.00 165.90-5.72L165.90-5.72Q165.90-5.59 165.84-5.45Z M169.41-2.40L169.41-2.40Q169.75-1.66 170.51-1.22Q171.27-0.78 172.23-0.78L172.23-0.78Q172.52-0.78 173.18-0.87Q173.85-0.96 174.72-1.46Q175.59-1.95 176.56-3.03Q177.54-4.10 178.46-6.05L178.46-6.05Q178.55-6.27 178.73-6.38Q178.91-6.48 179.12-6.48L179.12-6.48Q179.45-6.48 179.66-6.25Q179.86-6.02 179.86-5.74L179.86-5.74Q179.86-5.63 179.79-5.43L179.79-5.43Q179.10-4.00 178.26-2.88Q177.42-1.76 176.45-0.97Q175.47-0.18 174.40 0.24Q173.34 0.66 172.23 0.66L172.23 0.66Q171.35 0.66 170.58 0.39Q169.80 0.12 169.25-0.34Q168.69-0.80 168.37-1.38Q168.05-1.95 168.05-2.56L168.05-2.56Q168.05-2.64 168.07-2.77Q168.09-2.91 168.17-3.08Q168.26-3.24 168.43-3.39Q168.59-3.54 168.89-3.63L168.89-3.63Q169.69-3.87 170.36-4.21Q171.04-4.55 171.52-4.98Q172.01-5.41 172.29-5.93Q172.56-6.45 172.56-7.05L172.56-7.05Q172.56-7.58 172.21-7.91Q171.86-8.24 171.35-8.24L171.35-8.24Q170.82-8.24 170.31-7.88Q169.80-7.52 169.33-6.92Q168.85-6.33 168.42-5.56Q167.99-4.79 167.63-3.95Q167.27-3.11 166.99-2.28Q166.72-1.45 166.54-0.74L166.54-0.74Q166.48-0.53 166.42-0.27Q166.35-0.02 166.21 0.21Q166.07 0.43 165.88 0.58Q165.68 0.72 165.37 0.72L165.37 0.72Q165.08 0.72 164.80 0.48Q164.53 0.23 164.53-0.35L164.53-0.35Q164.53-0.47 164.54-1.25Q164.55-2.03 164.57-3.29Q164.59-4.55 164.62-6.18Q164.65-7.81 164.67-9.64Q164.69-11.46 164.73-13.40Q164.77-15.33 164.79-17.17Q164.80-19.00 164.83-20.65Q164.86-22.30 164.88-23.58Q164.90-24.86 164.91-25.67Q164.92-26.48 164.92-26.64L164.92-26.64Q164.92-26.95 165.16-27.16Q165.39-27.36 165.66-27.36L165.66-27.36Q165.98-27.36 166.19-27.16Q166.41-26.95 166.41-26.62L166.41-26.62Q166.41-26.58 166.40-25.85Q166.39-25.12 166.37-23.89Q166.35-22.66 166.32-21.02Q166.29-19.38 166.26-17.53Q166.23-15.68 166.20-13.73Q166.17-11.78 166.14-9.92Q166.11-8.07 166.09-6.39Q166.07-4.71 166.05-3.42L166.05-3.42Q166.37-4.41 166.86-5.52Q167.34-6.62 168.01-7.56Q168.67-8.50 169.50-9.10Q170.33-9.71 171.35-9.71L171.35-9.71Q171.91-9.71 172.40-9.50Q172.89-9.30 173.25-8.94Q173.61-8.57 173.82-8.09Q174.02-7.60 174.02-7.03L174.02-7.03Q174.02-6.15 173.63-5.42Q173.24-4.69 172.60-4.11Q171.95-3.54 171.12-3.11Q170.29-2.68 169.41-2.40Z M193.55-5.45L193.55-5.45Q193.48-5.29 193.23-4.79Q192.99-4.30 192.61-3.65Q192.23-3.01 191.72-2.30Q191.21-1.60 190.59-1.02Q189.96-0.43 189.24-0.05Q188.52 0.33 187.71 0.33L187.71 0.33Q186.58 0.33 185.81-0.39Q185.04-1.11 184.69-2.21L184.69-2.21Q184.02-1.09 183.11-0.44Q182.19 0.21 181.27 0.21L181.27 0.21Q180.55 0.21 179.96-0.05Q179.38-0.31 178.96-0.79Q178.55-1.27 178.33-1.91Q178.11-2.56 178.11-3.32L178.11-3.32Q178.11-4.84 178.62-6.01Q179.14-7.17 179.94-7.95Q180.74-8.73 181.71-9.12Q182.68-9.51 183.57-9.51L183.57-9.51Q184.18-9.51 184.69-9.35Q185.20-9.18 185.56-8.98Q185.92-8.79 186.11-8.62Q186.31-8.46 186.33-8.44L186.33-8.44Q186.54-8.18 186.54-7.91L186.54-7.91Q186.54-7.62 186.33-7.39Q186.11-7.17 185.82-7.17L185.82-7.17Q185.51-7.17 185.29-7.38L185.29-7.38Q185.25-7.42 185.12-7.53Q184.98-7.64 184.75-7.75Q184.51-7.87 184.19-7.96Q183.87-8.05 183.46-8.05L183.46-8.05Q182.85-8.05 182.17-7.77Q181.48-7.50 180.92-6.92Q180.35-6.35 179.97-5.48Q179.59-4.61 179.59-3.42L179.59-3.42Q179.59-3.05 179.67-2.67Q179.75-2.29 179.94-1.97Q180.14-1.66 180.47-1.46Q180.80-1.27 181.29-1.27L181.29-1.27Q181.64-1.27 182.10-1.50Q182.56-1.74 182.98-2.23Q183.40-2.71 183.74-3.46Q184.08-4.20 184.22-5.21L184.22-5.21Q184.26-5.49 184.47-5.67Q184.69-5.86 184.98-5.86L184.98-5.86Q185.25-5.86 185.46-5.64Q185.66-5.43 185.68-5.16L185.68-5.16Q185.70-4.79 185.76-4.11Q185.82-3.44 186.03-2.77Q186.23-2.11 186.64-1.62Q187.05-1.13 187.77-1.13L187.77-1.13Q188.24-1.13 188.70-1.39Q189.16-1.64 189.60-2.06Q190.04-2.48 190.44-3.02Q190.84-3.55 191.17-4.10Q191.50-4.65 191.76-5.16Q192.01-5.66 192.19-6.04L192.19-6.04Q192.29-6.25 192.47-6.37Q192.66-6.48 192.87-6.48L192.87-6.48Q193.20-6.48 193.41-6.24Q193.61-6.00 193.61-5.72L193.61-5.72Q193.61-5.59 193.55-5.45Z M204.98-5.41L204.98-5.41Q204.86-5.20 204.58-4.63Q204.30-4.06 203.82-3.35Q203.34-2.64 202.68-1.88Q202.01-1.11 201.15-0.48Q200.29 0.16 199.23 0.57Q198.16 0.98 196.91 0.98L196.91 0.98Q195.80 0.98 194.94 0.58Q194.08 0.18 193.48-0.56Q192.87-1.29 192.56-2.29Q192.25-3.28 192.25-4.49L192.25-4.49Q192.25-5.66 192.58-6.69Q192.91-7.71 193.49-8.48Q194.06-9.24 194.82-9.68Q195.59-10.12 196.45-10.12L196.45-10.12Q197.09-10.12 197.62-9.89Q198.14-9.67 198.51-9.30Q198.87-8.93 199.07-8.48Q199.28-8.03 199.28-7.58L199.28-7.58Q199.28-7.15 199.17-6.78Q199.06-6.41 198.90-6.12Q198.73-5.84 198.52-5.67Q198.30-5.51 198.09-5.51L198.09-5.51Q197.75-5.51 197.55-5.72Q197.34-5.94 197.34-6.25L197.34-6.25Q197.34-6.41 197.41-6.52Q197.48-6.64 197.57-6.77Q197.66-6.89 197.72-7.08Q197.79-7.27 197.79-7.56L197.79-7.56Q197.79-7.97 197.41-8.30Q197.03-8.63 196.45-8.63L196.45-8.63Q195.90-8.63 195.40-8.30Q194.90-7.97 194.53-7.41Q194.16-6.86 193.94-6.10Q193.71-5.35 193.71-4.51L193.71-4.51Q193.71-3.71 193.91-2.99Q194.10-2.27 194.49-1.71Q194.88-1.15 195.48-0.82Q196.07-0.49 196.89-0.49L196.89-0.49Q197.95-0.49 198.85-0.87Q199.75-1.25 200.49-1.84Q201.23-2.42 201.80-3.12Q202.36-3.81 202.76-4.42Q203.16-5.04 203.39-5.50Q203.61-5.96 203.65-6.07L203.65-6.07Q203.73-6.27 203.92-6.38Q204.10-6.48 204.32-6.48L204.32-6.48Q204.65-6.48 204.85-6.25Q205.06-6.02 205.06-5.72L205.06-5.72Q205.06-5.61 204.98-5.41Z M207.01-15.33L207.01-15.33Q207.01-14.59 206.49-14.07Q205.98-13.55 205.23-13.55L205.23-13.55Q204.49-13.55 203.97-14.07Q203.46-14.59 203.46-15.33L203.46-15.33Q203.46-15.70 203.59-16.03Q203.73-16.35 203.97-16.59Q204.22-16.84 204.54-16.97Q204.86-17.11 205.23-17.11L205.23-17.11Q205.61-17.11 205.93-16.97Q206.25-16.84 206.49-16.59Q206.74-16.35 206.88-16.03Q207.01-15.70 207.01-15.33ZM205.14 0.68L205.14 0.68Q205.86-0.10 206.62-0.97Q207.38-1.84 208.09-2.71Q208.79-3.57 209.38-4.42Q209.96-5.27 210.29-6.04L210.29-6.04Q210.47-6.46 210.96-6.46L210.96-6.46Q211.29-6.46 211.49-6.24Q211.70-6.02 211.70-5.74L211.70-5.74Q211.70-5.59 211.64-5.45L211.64-5.45Q211.19-4.43 210.41-3.34Q209.63-2.25 208.72-1.16Q207.81-0.08 206.87 0.95Q205.92 1.97 205.14 2.85L205.14 2.85Q205.16 4.41 205.19 5.92Q205.21 7.42 205.21 8.77L205.21 8.77Q205.21 14.14 204.16 16.74Q203.11 19.34 201.02 19.34L201.02 19.34Q200.29 19.34 199.69 19.02Q199.08 18.71 198.65 18.13Q198.22 17.54 197.98 16.68Q197.73 15.82 197.73 14.73L197.73 14.73Q197.73 13.52 198.06 12.08Q198.38 10.64 199.09 9.04Q199.80 7.44 200.94 5.73Q202.07 4.02 203.67 2.27L203.67 2.27Q203.67 0.59 203.69-1.08Q203.71-2.75 203.76-4.29Q203.81-5.82 203.90-7.16Q203.98-8.50 204.10-9.53L204.10-9.53Q204.14-9.82 204.35-10Q204.55-10.18 204.84-10.18L204.84-10.18Q205.14-10.18 205.35-9.96Q205.57-9.75 205.57-9.43L205.57-9.43Q205.57-9.32 205.50-8.67Q205.43-8.03 205.35-6.78Q205.27-5.53 205.21-3.68Q205.14-1.84 205.14 0.68ZM205.90-15.33L205.90-15.33Q205.90-15.61 205.70-15.81Q205.51-16.02 205.23-16.02L205.23-16.02Q204.96-16.02 204.76-15.81Q204.55-15.61 204.55-15.33L204.55-15.33Q204.55-15.06 204.76-14.86Q204.96-14.67 205.23-14.67L205.23-14.67Q205.51-14.67 205.70-14.86Q205.90-15.06 205.90-15.33ZM203.75 8.65L203.75 8.65Q203.75 7.66 203.73 6.66Q203.71 5.66 203.69 4.49L203.69 4.49Q202.48 5.96 201.63 7.38Q200.78 8.81 200.23 10.12Q199.69 11.43 199.44 12.60Q199.20 13.77 199.20 14.73L199.20 14.73Q199.20 15.27 199.28 15.83Q199.36 16.39 199.56 16.85Q199.77 17.30 200.12 17.59Q200.47 17.87 201.02 17.87L201.02 17.87Q201.23 17.87 201.52 17.77Q201.82 17.68 202.12 17.35Q202.42 17.03 202.71 16.43Q203.01 15.82 203.24 14.79Q203.48 13.77 203.61 12.27Q203.75 10.76 203.75 8.65Z M213.48-15.33L213.48-15.33Q213.48-14.59 212.96-14.07Q212.44-13.55 211.70-13.55L211.70-13.55Q210.96-13.55 210.44-14.07Q209.92-14.59 209.92-15.33L209.92-15.33Q209.92-15.70 210.06-16.03Q210.20-16.35 210.44-16.59Q210.68-16.84 211.01-16.97Q211.33-17.11 211.70-17.11L211.70-17.11Q212.07-17.11 212.39-16.97Q212.71-16.84 212.96-16.59Q213.20-16.35 213.34-16.03Q213.48-15.70 213.48-15.33ZM210.31-3.89L210.31-3.89Q210.31-6.70 210.66-9.49L210.66-9.49Q210.70-9.77 210.91-9.97Q211.11-10.18 211.45-10.18L211.45-10.18Q211.74-10.18 211.93-9.95Q212.13-9.73 212.13-9.43L212.13-9.43Q212.13-9.32 212.08-8.73Q212.03-8.14 211.96-7.33Q211.89-6.52 211.85-5.62Q211.80-4.71 211.80-3.95L211.80-3.95Q211.80-2.91 212.00-2.28Q212.21-1.64 212.53-1.29Q212.85-0.94 213.21-0.82Q213.57-0.70 213.91-0.70L213.91-0.70Q214.45-0.70 215.04-1.09Q215.63-1.48 216.24-2.19Q216.86-2.89 217.48-3.88Q218.11-4.86 218.71-6.07L218.71-6.07Q218.81-6.27 218.98-6.38Q219.16-6.48 219.38-6.48L219.38-6.48Q219.69-6.48 219.89-6.25Q220.10-6.02 220.10-5.74L220.10-5.74Q220.10-5.55 220.02-5.41L220.02-5.41Q219.79-4.96 219.43-4.32Q219.08-3.67 218.63-2.99Q218.18-2.30 217.65-1.63Q217.11-0.96 216.50-0.42Q215.90 0.12 215.23 0.45Q214.57 0.78 213.89 0.78L213.89 0.78Q213.01 0.78 212.34 0.41Q211.68 0.04 211.22-0.59Q210.76-1.21 210.54-2.06Q210.31-2.91 210.31-3.89ZM212.38-15.33L212.38-15.33Q212.38-15.61 212.18-15.81Q211.97-16.02 211.70-16.02L211.70-16.02Q211.43-16.02 211.23-15.81Q211.04-15.61 211.04-15.33L211.04-15.33Q211.04-15.06 211.23-14.86Q211.43-14.67 211.70-14.67L211.70-14.67Q211.97-14.67 212.18-14.86Q212.38-15.06 212.38-15.33Z"/></g>
</svg>
</g></g><g filter="url(#tUk6sjh6M)"><g opacity="1" transform="rotate(0 61.6265 218.2201)">
<svg width="385.8975" height="90" x="61.6265" y="218.2201" version="1.1" preserveAspectRatio="none" viewBox="1.9531 -31.543 218.1446 50.8789">
  <g transform="matrix(1 0 0 1 0 0)" class="companyName"><path id="id-D6z1nYkh12" d="M35.43-20.51L35.43-20.51Q35.37-20.23 35.18-20.08Q34.98-19.92 34.75-19.92L34.75-19.92Q34.39-19.92 34.18-20.15Q33.96-20.37 33.96-20.66L33.96-20.66Q33.96-20.96 34.02-21.24Q34.08-21.52 34.08-21.80L34.08-21.80Q34.08-23.22 33.20-24.36Q32.32-25.49 30.71-26.26Q29.10-27.03 26.80-27.44Q24.49-27.85 21.66-27.85L21.66-27.85Q19.49-27.85 17.29-27.57Q15.10-27.29 13.08-26.75Q11.05-26.21 9.30-25.40Q7.54-24.59 6.24-23.53Q4.94-22.46 4.20-21.16Q3.46-19.86 3.46-18.32L3.46-18.32Q3.46-17.13 3.97-16.22Q4.49-15.31 5.39-14.64Q6.29-13.96 7.51-13.49Q8.73-13.01 10.16-12.69Q11.58-12.36 13.13-12.16Q14.67-11.95 16.23-11.82L16.23-11.82L19.24-11.56Q21.48-11.37 23.26-11.15Q25.04-10.94 26.39-10.61L26.39-10.61Q28.63-10.04 29.71-8.98Q30.78-7.93 30.78-6.17L30.78-6.17Q30.78-4.47 29.84-3.18Q28.91-1.89 27.29-1.02Q25.66-0.14 23.50 0.31Q21.33 0.76 18.85 0.76L18.85 0.76Q16.15 0.76 14.11 0.40Q12.07 0.04 10.69-0.40Q9.32-0.84 8.59-1.21Q7.87-1.58 7.81-1.62L7.81-1.62Q7.46-1.82 7.46-2.25L7.46-2.25Q7.46-2.58 7.70-2.78Q7.93-2.99 8.20-2.99L8.20-2.99Q8.42-2.99 8.59-2.87L8.59-2.87Q8.61-2.87 9.27-2.53Q9.92-2.19 11.22-1.78Q12.52-1.37 14.43-1.04Q16.35-0.70 18.89-0.70L18.89-0.70Q21.41-0.70 23.34-1.11Q25.27-1.52 26.59-2.26Q27.91-2.99 28.58-3.97Q29.26-4.96 29.26-6.11L29.26-6.11Q29.26-6.80 29.01-7.29Q28.77-7.79 28.34-8.15Q27.91-8.52 27.31-8.77Q26.72-9.02 26.02-9.20L26.02-9.20Q25.27-9.39 24.42-9.53Q23.57-9.67 22.68-9.77Q21.78-9.86 20.87-9.94Q19.96-10.02 19.08-10.10L19.08-10.10L16.07-10.35Q12.52-10.64 9.87-11.26Q7.23-11.88 5.47-12.84Q3.71-13.81 2.83-15.16Q1.95-16.50 1.95-18.30L1.95-18.30Q1.95-20.14 2.78-21.67Q3.61-23.20 5.05-24.43Q6.48-25.66 8.41-26.57Q10.33-27.48 12.52-28.09Q14.71-28.69 17.05-28.99Q19.39-29.30 21.66-29.30L21.66-29.30Q24.49-29.30 26.59-28.96Q28.69-28.61 30.19-28.08Q31.68-27.54 32.64-26.86Q33.59-26.17 34.18-25.51L34.18-25.51Q35.57-23.89 35.57-21.82L35.57-21.82Q35.57-21.13 35.43-20.51Z M38.09-1.74L38.09-1.74Q38.38-2.32 38.84-3.19Q39.30-4.06 39.79-4.94Q40.29-5.82 40.77-6.60Q41.25-7.38 41.58-7.79L41.58-7.79Q42.15-8.48 42.75-8.77Q43.36-9.06 43.87-9.06L43.87-9.06Q44.38-9.06 44.74-8.85Q45.10-8.63 45.33-8.27Q45.57-7.91 45.68-7.43Q45.80-6.95 45.80-6.41L45.80-6.41Q45.80-6.09 45.77-5.59Q45.74-5.08 45.71-4.49Q45.68-3.91 45.65-3.28Q45.63-2.66 45.61-2.11L45.61-2.11Q45.90-2.70 46.27-3.41Q46.64-4.12 47.02-4.82Q47.40-5.53 47.75-6.14Q48.11-6.76 48.40-7.15L48.40-7.15Q49.24-8.30 49.97-8.69Q50.70-9.08 51.27-9.08L51.27-9.08Q51.93-9.08 52.36-8.84Q52.79-8.59 53.04-8.21Q53.28-7.83 53.38-7.36Q53.48-6.89 53.48-6.46L53.48-6.46Q53.48-5.80 53.38-5.08Q53.28-4.36 53.28-3.36L53.28-3.36Q53.28-2.95 53.32-2.54Q53.36-2.13 53.49-1.82Q53.61-1.50 53.89-1.31Q54.16-1.11 54.63-1.11L54.63-1.11Q55.14-1.11 55.63-1.38Q56.11-1.64 56.56-2.07Q57.01-2.50 57.41-3.05Q57.81-3.59 58.14-4.14Q58.48-4.69 58.73-5.19Q58.98-5.68 59.14-6.04L59.14-6.04Q59.24-6.25 59.41-6.37Q59.59-6.48 59.80-6.48L59.80-6.48Q60.14-6.48 60.34-6.24Q60.55-6.00 60.55-5.72L60.55-5.72Q60.55-5.59 60.49-5.45L60.49-5.45Q60.41-5.29 60.18-4.79Q59.94-4.30 59.55-3.66Q59.16-3.03 58.64-2.32Q58.13-1.62 57.50-1.03Q56.88-0.43 56.15-0.05Q55.43 0.33 54.63 0.33L54.63 0.33Q53.77 0.33 53.23 0.03Q52.70-0.27 52.37-0.78Q52.05-1.29 51.93-1.95Q51.82-2.62 51.82-3.34L51.82-3.34Q51.82-4.30 51.91-5.11Q52.01-5.92 52.01-6.37L52.01-6.37Q52.01-6.86 51.92-7.11Q51.84-7.36 51.71-7.47Q51.58-7.58 51.46-7.59Q51.35-7.60 51.29-7.60L51.29-7.60Q50.82-7.60 50.30-7.08Q49.79-6.56 49.24-5.70Q48.69-4.84 48.12-3.75Q47.54-2.66 46.95-1.52L46.95-1.52Q46.62-0.90 46.40-0.49Q46.17-0.08 45.97 0.16Q45.76 0.39 45.57 0.49Q45.37 0.59 45.14 0.59L45.14 0.59Q44.63 0.59 44.37 0.23Q44.10-0.12 44.10-0.68L44.10-0.68Q44.10-0.98 44.12-1.46Q44.14-1.95 44.16-2.54Q44.18-3.13 44.22-3.75Q44.26-4.38 44.28-4.95Q44.30-5.53 44.32-5.98Q44.34-6.43 44.34-6.66L44.34-6.66Q44.34-7.17 44.16-7.39Q43.98-7.62 43.75-7.62L43.75-7.62Q43.54-7.62 43.27-7.46Q43.01-7.30 42.66-6.86L42.66-6.86Q42.38-6.50 41.96-5.83Q41.54-5.16 41.07-4.34Q40.61-3.52 40.15-2.66Q39.69-1.80 39.36-1.11L39.36-1.11Q38.95-0.29 38.54 0.01Q38.13 0.31 37.73 0.31L37.73 0.31Q37.17 0.31 36.89-0.03Q36.62-0.37 36.62-0.94L36.62-0.94Q36.62-1.00 36.65-1.64Q36.68-2.29 36.72-3.21Q36.76-4.14 36.81-5.20Q36.86-6.25 36.89-7.17L36.89-7.17Q36.91-7.66 36.86-8.07Q36.80-8.48 36.70-8.55L36.70-8.55Q36.54-8.52 36.08-7.83Q35.63-7.15 34.92-5.45L34.92-5.45Q34.82-5.23 34.63-5.12Q34.43-5 34.22-5L34.22-5Q33.89-5 33.69-5.22Q33.50-5.45 33.50-5.74L33.50-5.74Q33.50-5.88 33.55-6.04L33.55-6.04Q34.43-8.13 35.23-9.11Q36.04-10.10 36.80-10.10L36.80-10.10Q37.25-10.10 37.55-9.89Q37.85-9.69 38.03-9.37Q38.20-9.04 38.28-8.63Q38.36-8.22 38.36-7.83L38.36-7.83Q38.36-6.09 38.27-4.65Q38.18-3.20 38.09-1.74Z M74.24-5.45L74.24-5.45Q74.16-5.29 73.92-4.79Q73.67-4.30 73.29-3.65Q72.91-3.01 72.40-2.30Q71.89-1.60 71.27-1.02Q70.64-0.43 69.92-0.05Q69.20 0.33 68.40 0.33L68.40 0.33Q67.27 0.33 66.49-0.39Q65.72-1.11 65.37-2.21L65.37-2.21Q64.71-1.09 63.79-0.44Q62.87 0.21 61.95 0.21L61.95 0.21Q61.23 0.21 60.64-0.05Q60.06-0.31 59.65-0.79Q59.24-1.27 59.01-1.91Q58.79-2.56 58.79-3.32L58.79-3.32Q58.79-4.84 59.31-6.01Q59.82-7.17 60.63-7.95Q61.43-8.73 62.39-9.12Q63.36-9.51 64.26-9.51L64.26-9.51Q64.86-9.51 65.37-9.35Q65.88-9.18 66.24-8.98Q66.60-8.79 66.80-8.62Q66.99-8.46 67.01-8.44L67.01-8.44Q67.23-8.18 67.23-7.91L67.23-7.91Q67.23-7.62 67.01-7.39Q66.80-7.17 66.50-7.17L66.50-7.17Q66.19-7.17 65.98-7.38L65.98-7.38Q65.94-7.42 65.80-7.53Q65.66-7.64 65.43-7.75Q65.20-7.87 64.87-7.96Q64.55-8.05 64.14-8.05L64.14-8.05Q63.54-8.05 62.85-7.77Q62.17-7.50 61.60-6.92Q61.04-6.35 60.65-5.48Q60.27-4.61 60.27-3.42L60.27-3.42Q60.27-3.05 60.35-2.67Q60.43-2.29 60.63-1.97Q60.82-1.66 61.15-1.46Q61.48-1.27 61.97-1.27L61.97-1.27Q62.32-1.27 62.78-1.50Q63.24-1.74 63.66-2.23Q64.08-2.71 64.42-3.46Q64.77-4.20 64.90-5.21L64.90-5.21Q64.94-5.49 65.16-5.67Q65.37-5.86 65.66-5.86L65.66-5.86Q65.94-5.86 66.14-5.64Q66.35-5.43 66.37-5.16L66.37-5.16Q66.39-4.79 66.45-4.11Q66.50-3.44 66.71-2.77Q66.91-2.11 67.32-1.62Q67.73-1.13 68.46-1.13L68.46-1.13Q68.93-1.13 69.38-1.39Q69.84-1.64 70.28-2.06Q70.72-2.48 71.12-3.02Q71.52-3.55 71.86-4.10Q72.19-4.65 72.44-5.16Q72.70-5.66 72.87-6.04L72.87-6.04Q72.97-6.25 73.15-6.37Q73.34-6.48 73.55-6.48L73.55-6.48Q73.89-6.48 74.09-6.24Q74.30-6.00 74.30-5.72L74.30-5.72Q74.30-5.59 74.24-5.45Z M77.81-2.40L77.81-2.40Q78.14-1.66 78.91-1.22Q79.67-0.78 80.63-0.78L80.63-0.78Q80.92-0.78 81.58-0.87Q82.25-0.96 83.12-1.46Q83.98-1.95 84.96-3.03Q85.94-4.10 86.86-6.05L86.86-6.05Q86.95-6.27 87.13-6.38Q87.30-6.48 87.52-6.48L87.52-6.48Q87.85-6.48 88.06-6.25Q88.26-6.02 88.26-5.74L88.26-5.74Q88.26-5.63 88.18-5.43L88.18-5.43Q87.50-4.00 86.66-2.88Q85.82-1.76 84.84-0.97Q83.87-0.18 82.80 0.24Q81.74 0.66 80.63 0.66L80.63 0.66Q79.75 0.66 78.97 0.39Q78.20 0.12 77.65-0.34Q77.09-0.80 76.77-1.38Q76.45-1.95 76.45-2.56L76.45-2.56Q76.45-2.64 76.46-2.77Q76.48-2.91 76.57-3.08Q76.66-3.24 76.83-3.39Q76.99-3.54 77.29-3.63L77.29-3.63Q78.09-3.87 78.76-4.21Q79.43-4.55 79.92-4.98Q80.41-5.41 80.68-5.93Q80.96-6.45 80.96-7.05L80.96-7.05Q80.96-7.58 80.61-7.91Q80.25-8.24 79.75-8.24L79.75-8.24Q79.22-8.24 78.71-7.88Q78.20-7.52 77.72-6.92Q77.25-6.33 76.82-5.56Q76.39-4.79 76.03-3.95Q75.66-3.11 75.39-2.28Q75.12-1.45 74.94-0.74L74.94-0.74Q74.88-0.53 74.81-0.27Q74.75-0.02 74.61 0.21Q74.47 0.43 74.28 0.58Q74.08 0.72 73.77 0.72L73.77 0.72Q73.48 0.72 73.20 0.48Q72.93 0.23 72.93-0.35L72.93-0.35Q72.93-0.47 72.94-1.25Q72.95-2.03 72.97-3.29Q72.99-4.55 73.02-6.18Q73.05-7.81 73.07-9.64Q73.09-11.46 73.13-13.40Q73.16-15.33 73.18-17.17Q73.20-19.00 73.23-20.65Q73.26-22.30 73.28-23.58Q73.30-24.86 73.31-25.67Q73.32-26.48 73.32-26.64L73.32-26.64Q73.32-26.95 73.55-27.16Q73.79-27.36 74.06-27.36L74.06-27.36Q74.38-27.36 74.59-27.16Q74.80-26.95 74.80-26.62L74.80-26.62Q74.80-26.58 74.79-25.85Q74.79-25.12 74.77-23.89Q74.75-22.66 74.72-21.02Q74.69-19.38 74.66-17.53Q74.63-15.68 74.60-13.73Q74.57-11.78 74.54-9.92Q74.51-8.07 74.49-6.39Q74.47-4.71 74.45-3.42L74.45-3.42Q74.77-4.41 75.25-5.52Q75.74-6.62 76.41-7.56Q77.07-8.50 77.90-9.10Q78.73-9.71 79.75-9.71L79.75-9.71Q80.31-9.71 80.80-9.50Q81.29-9.30 81.65-8.94Q82.01-8.57 82.22-8.09Q82.42-7.60 82.42-7.03L82.42-7.03Q82.42-6.15 82.03-5.42Q81.64-4.69 81.00-4.11Q80.35-3.54 79.52-3.11Q78.69-2.68 77.81-2.40Z M129.77-22.27L117.29 0.90Q117.07 1.29 116.64 1.29L116.64 1.29Q116.29 1.29 116.09 1.06Q115.90 0.84 115.90 0.53L115.90 0.53Q115.90 0.49 115.92-0.28Q115.94-1.05 115.94-2.36L115.94-2.36Q115.94-4.02 115.95-5.90Q115.96-7.77 115.90-9.71Q115.84-11.64 115.64-13.55Q115.45-15.47 115.04-17.22Q114.63-18.96 113.96-20.47Q113.30-21.97 112.27-23.08Q111.23-24.18 109.80-24.80Q108.38-25.43 106.45-25.43L106.45-25.43Q104.55-25.43 102.99-24.78Q101.43-24.12 100.30-23.02Q99.18-21.91 98.56-20.44Q97.95-18.96 97.95-17.32L97.95-17.32Q97.95-15.90 98.45-14.70Q98.95-13.50 99.80-12.62Q100.66-11.74 101.81-11.24Q102.95-10.74 104.24-10.74L104.24-10.74Q105.20-10.74 106.00-11.01Q106.80-11.27 107.36-11.58Q107.93-11.89 108.24-12.16Q108.55-12.42 108.57-12.42L108.57-12.42Q108.79-12.64 109.10-12.64L109.10-12.64Q109.39-12.64 109.61-12.43Q109.82-12.23 109.82-11.93L109.82-11.93Q109.82-11.64 109.61-11.43L109.61-11.43Q109.57-11.39 109.17-11.04Q108.77-10.70 108.07-10.31Q107.36-9.92 106.40-9.61Q105.43-9.30 104.26-9.30L104.26-9.30Q102.64-9.30 101.22-9.90Q99.80-10.51 98.75-11.58Q97.70-12.66 97.08-14.13Q96.46-15.61 96.46-17.32L96.46-17.32Q96.46-19.28 97.22-21.02Q97.97-22.75 99.30-24.05Q100.63-25.35 102.43-26.10Q104.24-26.86 106.37-26.86L106.37-26.86Q109.12-26.86 111.02-25.87Q112.91-24.88 114.15-23.23Q115.39-21.58 116.06-19.42Q116.74-17.27 117.05-14.92Q117.36-12.58 117.42-10.21Q117.48-7.83 117.48-5.74L117.48-5.74Q117.48-5.35 117.48-4.90Q117.48-4.45 117.47-4.00Q117.46-3.55 117.45-3.15Q117.44-2.75 117.44-2.50L117.44-2.50L130.53-26.72Q130.70-27.09 131.15-27.09L131.15-27.09Q131.48-27.09 131.69-26.87Q131.89-26.64 131.89-26.35L131.89-26.35Q131.89-26.25 131.78-25.63Q131.66-25.02 131.49-24.00Q131.33-22.99 131.13-21.65Q130.94-20.31 130.77-18.77Q130.61-17.23 130.49-15.56Q130.37-13.89 130.37-12.23L130.37-12.23Q130.37-9.43 130.66-7.28Q130.96-5.12 131.62-3.63Q132.29-2.15 133.37-1.39Q134.45-0.63 136.04-0.63L136.04-0.63Q137.46-0.63 138.75-1.24Q140.04-1.86 141.15-2.93Q142.27-4.00 143.22-5.45Q144.18-6.89 144.95-8.56Q145.72-10.23 146.32-12.03Q146.91-13.83 147.31-15.61Q147.71-17.38 147.92-19.06Q148.13-20.74 148.13-22.15L148.13-22.15Q148.13-24.69 147.55-26.83Q146.97-28.96 145.70-30.31L145.70-30.31Q145.51-30.51 145.51-30.80L145.51-30.80Q145.51-31.11 145.73-31.33Q145.96-31.54 146.25-31.54L146.25-31.54Q146.58-31.54 146.78-31.33L146.78-31.33Q147.52-30.53 148.06-29.52Q148.59-28.52 148.94-27.33Q149.28-26.15 149.44-24.84Q149.61-23.54 149.61-22.13L149.61-22.13Q149.61-19.98 149.20-17.45Q148.79-14.92 147.99-12.37Q147.19-9.82 146.03-7.44Q144.86-5.06 143.35-3.23Q141.84-1.41 140-0.30Q138.16 0.80 136.04 0.80L136.04 0.80Q134.02 0.80 132.66-0.11Q131.29-1.02 130.46-2.72Q129.63-4.43 129.27-6.88Q128.91-9.32 128.91-12.38L128.91-12.38Q128.91-13.65 128.99-15Q129.08-16.35 129.21-17.64Q129.34-18.93 129.48-20.12Q129.63-21.31 129.77-22.27L129.77-22.27Z M165.84-5.45L165.84-5.45Q165.76-5.29 165.52-4.79Q165.27-4.30 164.89-3.65Q164.51-3.01 164.00-2.30Q163.50-1.60 162.87-1.02Q162.25-0.43 161.52-0.05Q160.80 0.33 160 0.33L160 0.33Q158.87 0.33 158.10-0.39Q157.32-1.11 156.97-2.21L156.97-2.21Q156.31-1.09 155.39-0.44Q154.47 0.21 153.55 0.21L153.55 0.21Q152.83 0.21 152.25-0.05Q151.66-0.31 151.25-0.79Q150.84-1.27 150.62-1.91Q150.39-2.56 150.39-3.32L150.39-3.32Q150.39-4.84 150.91-6.01Q151.43-7.17 152.23-7.95Q153.03-8.73 153.99-9.12Q154.96-9.51 155.86-9.51L155.86-9.51Q156.46-9.51 156.97-9.35Q157.48-9.18 157.84-8.98Q158.20-8.79 158.40-8.62Q158.59-8.46 158.61-8.44L158.61-8.44Q158.83-8.18 158.83-7.91L158.83-7.91Q158.83-7.62 158.61-7.39Q158.40-7.17 158.11-7.17L158.11-7.17Q157.79-7.17 157.58-7.38L157.58-7.38Q157.54-7.42 157.40-7.53Q157.27-7.64 157.03-7.75Q156.80-7.87 156.47-7.96Q156.15-8.05 155.74-8.05L155.74-8.05Q155.14-8.05 154.45-7.77Q153.77-7.50 153.20-6.92Q152.64-6.35 152.26-5.48Q151.88-4.61 151.88-3.42L151.88-3.42Q151.88-3.05 151.95-2.67Q152.03-2.29 152.23-1.97Q152.42-1.66 152.75-1.46Q153.09-1.27 153.57-1.27L153.57-1.27Q153.93-1.27 154.38-1.50Q154.84-1.74 155.26-2.23Q155.68-2.71 156.03-3.46Q156.37-4.20 156.50-5.21L156.50-5.21Q156.54-5.49 156.76-5.67Q156.97-5.86 157.27-5.86L157.27-5.86Q157.54-5.86 157.74-5.64Q157.95-5.43 157.97-5.16L157.97-5.16Q157.99-4.79 158.05-4.11Q158.11-3.44 158.31-2.77Q158.52-2.11 158.93-1.62Q159.34-1.13 160.06-1.13L160.06-1.13Q160.53-1.13 160.99-1.39Q161.45-1.64 161.88-2.06Q162.32-2.48 162.72-3.02Q163.13-3.55 163.46-4.10Q163.79-4.65 164.04-5.16Q164.30-5.66 164.47-6.04L164.47-6.04Q164.57-6.25 164.76-6.37Q164.94-6.48 165.16-6.48L165.16-6.48Q165.49-6.48 165.69-6.24Q165.90-6.00 165.90-5.72L165.90-5.72Q165.90-5.59 165.84-5.45Z M169.41-2.40L169.41-2.40Q169.75-1.66 170.51-1.22Q171.27-0.78 172.23-0.78L172.23-0.78Q172.52-0.78 173.18-0.87Q173.85-0.96 174.72-1.46Q175.59-1.95 176.56-3.03Q177.54-4.10 178.46-6.05L178.46-6.05Q178.55-6.27 178.73-6.38Q178.91-6.48 179.12-6.48L179.12-6.48Q179.45-6.48 179.66-6.25Q179.86-6.02 179.86-5.74L179.86-5.74Q179.86-5.63 179.79-5.43L179.79-5.43Q179.10-4.00 178.26-2.88Q177.42-1.76 176.45-0.97Q175.47-0.18 174.40 0.24Q173.34 0.66 172.23 0.66L172.23 0.66Q171.35 0.66 170.58 0.39Q169.80 0.12 169.25-0.34Q168.69-0.80 168.37-1.38Q168.05-1.95 168.05-2.56L168.05-2.56Q168.05-2.64 168.07-2.77Q168.09-2.91 168.17-3.08Q168.26-3.24 168.43-3.39Q168.59-3.54 168.89-3.63L168.89-3.63Q169.69-3.87 170.36-4.21Q171.04-4.55 171.52-4.98Q172.01-5.41 172.29-5.93Q172.56-6.45 172.56-7.05L172.56-7.05Q172.56-7.58 172.21-7.91Q171.86-8.24 171.35-8.24L171.35-8.24Q170.82-8.24 170.31-7.88Q169.80-7.52 169.33-6.92Q168.85-6.33 168.42-5.56Q167.99-4.79 167.63-3.95Q167.27-3.11 166.99-2.28Q166.72-1.45 166.54-0.74L166.54-0.74Q166.48-0.53 166.42-0.27Q166.35-0.02 166.21 0.21Q166.07 0.43 165.88 0.58Q165.68 0.72 165.37 0.72L165.37 0.72Q165.08 0.72 164.80 0.48Q164.53 0.23 164.53-0.35L164.53-0.35Q164.53-0.47 164.54-1.25Q164.55-2.03 164.57-3.29Q164.59-4.55 164.62-6.18Q164.65-7.81 164.67-9.64Q164.69-11.46 164.73-13.40Q164.77-15.33 164.79-17.17Q164.80-19.00 164.83-20.65Q164.86-22.30 164.88-23.58Q164.90-24.86 164.91-25.67Q164.92-26.48 164.92-26.64L164.92-26.64Q164.92-26.95 165.16-27.16Q165.39-27.36 165.66-27.36L165.66-27.36Q165.98-27.36 166.19-27.16Q166.41-26.95 166.41-26.62L166.41-26.62Q166.41-26.58 166.40-25.85Q166.39-25.12 166.37-23.89Q166.35-22.66 166.32-21.02Q166.29-19.38 166.26-17.53Q166.23-15.68 166.20-13.73Q166.17-11.78 166.14-9.92Q166.11-8.07 166.09-6.39Q166.07-4.71 166.05-3.42L166.05-3.42Q166.37-4.41 166.86-5.52Q167.34-6.62 168.01-7.56Q168.67-8.50 169.50-9.10Q170.33-9.71 171.35-9.71L171.35-9.71Q171.91-9.71 172.40-9.50Q172.89-9.30 173.25-8.94Q173.61-8.57 173.82-8.09Q174.02-7.60 174.02-7.03L174.02-7.03Q174.02-6.15 173.63-5.42Q173.24-4.69 172.60-4.11Q171.95-3.54 171.12-3.11Q170.29-2.68 169.41-2.40Z M193.55-5.45L193.55-5.45Q193.48-5.29 193.23-4.79Q192.99-4.30 192.61-3.65Q192.23-3.01 191.72-2.30Q191.21-1.60 190.59-1.02Q189.96-0.43 189.24-0.05Q188.52 0.33 187.71 0.33L187.71 0.33Q186.58 0.33 185.81-0.39Q185.04-1.11 184.69-2.21L184.69-2.21Q184.02-1.09 183.11-0.44Q182.19 0.21 181.27 0.21L181.27 0.21Q180.55 0.21 179.96-0.05Q179.38-0.31 178.96-0.79Q178.55-1.27 178.33-1.91Q178.11-2.56 178.11-3.32L178.11-3.32Q178.11-4.84 178.62-6.01Q179.14-7.17 179.94-7.95Q180.74-8.73 181.71-9.12Q182.68-9.51 183.57-9.51L183.57-9.51Q184.18-9.51 184.69-9.35Q185.20-9.18 185.56-8.98Q185.92-8.79 186.11-8.62Q186.31-8.46 186.33-8.44L186.33-8.44Q186.54-8.18 186.54-7.91L186.54-7.91Q186.54-7.62 186.33-7.39Q186.11-7.17 185.82-7.17L185.82-7.17Q185.51-7.17 185.29-7.38L185.29-7.38Q185.25-7.42 185.12-7.53Q184.98-7.64 184.75-7.75Q184.51-7.87 184.19-7.96Q183.87-8.05 183.46-8.05L183.46-8.05Q182.85-8.05 182.17-7.77Q181.48-7.50 180.92-6.92Q180.35-6.35 179.97-5.48Q179.59-4.61 179.59-3.42L179.59-3.42Q179.59-3.05 179.67-2.67Q179.75-2.29 179.94-1.97Q180.14-1.66 180.47-1.46Q180.80-1.27 181.29-1.27L181.29-1.27Q181.64-1.27 182.10-1.50Q182.56-1.74 182.98-2.23Q183.40-2.71 183.74-3.46Q184.08-4.20 184.22-5.21L184.22-5.21Q184.26-5.49 184.47-5.67Q184.69-5.86 184.98-5.86L184.98-5.86Q185.25-5.86 185.46-5.64Q185.66-5.43 185.68-5.16L185.68-5.16Q185.70-4.79 185.76-4.11Q185.82-3.44 186.03-2.77Q186.23-2.11 186.64-1.62Q187.05-1.13 187.77-1.13L187.77-1.13Q188.24-1.13 188.70-1.39Q189.16-1.64 189.60-2.06Q190.04-2.48 190.44-3.02Q190.84-3.55 191.17-4.10Q191.50-4.65 191.76-5.16Q192.01-5.66 192.19-6.04L192.19-6.04Q192.29-6.25 192.47-6.37Q192.66-6.48 192.87-6.48L192.87-6.48Q193.20-6.48 193.41-6.24Q193.61-6.00 193.61-5.72L193.61-5.72Q193.61-5.59 193.55-5.45Z M204.98-5.41L204.98-5.41Q204.86-5.20 204.58-4.63Q204.30-4.06 203.82-3.35Q203.34-2.64 202.68-1.88Q202.01-1.11 201.15-0.48Q200.29 0.16 199.23 0.57Q198.16 0.98 196.91 0.98L196.91 0.98Q195.80 0.98 194.94 0.58Q194.08 0.18 193.48-0.56Q192.87-1.29 192.56-2.29Q192.25-3.28 192.25-4.49L192.25-4.49Q192.25-5.66 192.58-6.69Q192.91-7.71 193.49-8.48Q194.06-9.24 194.82-9.68Q195.59-10.12 196.45-10.12L196.45-10.12Q197.09-10.12 197.62-9.89Q198.14-9.67 198.51-9.30Q198.87-8.93 199.07-8.48Q199.28-8.03 199.28-7.58L199.28-7.58Q199.28-7.15 199.17-6.78Q199.06-6.41 198.90-6.12Q198.73-5.84 198.52-5.67Q198.30-5.51 198.09-5.51L198.09-5.51Q197.75-5.51 197.55-5.72Q197.34-5.94 197.34-6.25L197.34-6.25Q197.34-6.41 197.41-6.52Q197.48-6.64 197.57-6.77Q197.66-6.89 197.72-7.08Q197.79-7.27 197.79-7.56L197.79-7.56Q197.79-7.97 197.41-8.30Q197.03-8.63 196.45-8.63L196.45-8.63Q195.90-8.63 195.40-8.30Q194.90-7.97 194.53-7.41Q194.16-6.86 193.94-6.10Q193.71-5.35 193.71-4.51L193.71-4.51Q193.71-3.71 193.91-2.99Q194.10-2.27 194.49-1.71Q194.88-1.15 195.48-0.82Q196.07-0.49 196.89-0.49L196.89-0.49Q197.95-0.49 198.85-0.87Q199.75-1.25 200.49-1.84Q201.23-2.42 201.80-3.12Q202.36-3.81 202.76-4.42Q203.16-5.04 203.39-5.50Q203.61-5.96 203.65-6.07L203.65-6.07Q203.73-6.27 203.92-6.38Q204.10-6.48 204.32-6.48L204.32-6.48Q204.65-6.48 204.85-6.25Q205.06-6.02 205.06-5.72L205.06-5.72Q205.06-5.61 204.98-5.41Z M207.01-15.33L207.01-15.33Q207.01-14.59 206.49-14.07Q205.98-13.55 205.23-13.55L205.23-13.55Q204.49-13.55 203.97-14.07Q203.46-14.59 203.46-15.33L203.46-15.33Q203.46-15.70 203.59-16.03Q203.73-16.35 203.97-16.59Q204.22-16.84 204.54-16.97Q204.86-17.11 205.23-17.11L205.23-17.11Q205.61-17.11 205.93-16.97Q206.25-16.84 206.49-16.59Q206.74-16.35 206.88-16.03Q207.01-15.70 207.01-15.33ZM205.14 0.68L205.14 0.68Q205.86-0.10 206.62-0.97Q207.38-1.84 208.09-2.71Q208.79-3.57 209.38-4.42Q209.96-5.27 210.29-6.04L210.29-6.04Q210.47-6.46 210.96-6.46L210.96-6.46Q211.29-6.46 211.49-6.24Q211.70-6.02 211.70-5.74L211.70-5.74Q211.70-5.59 211.64-5.45L211.64-5.45Q211.19-4.43 210.41-3.34Q209.63-2.25 208.72-1.16Q207.81-0.08 206.87 0.95Q205.92 1.97 205.14 2.85L205.14 2.85Q205.16 4.41 205.19 5.92Q205.21 7.42 205.21 8.77L205.21 8.77Q205.21 14.14 204.16 16.74Q203.11 19.34 201.02 19.34L201.02 19.34Q200.29 19.34 199.69 19.02Q199.08 18.71 198.65 18.13Q198.22 17.54 197.98 16.68Q197.73 15.82 197.73 14.73L197.73 14.73Q197.73 13.52 198.06 12.08Q198.38 10.64 199.09 9.04Q199.80 7.44 200.94 5.73Q202.07 4.02 203.67 2.27L203.67 2.27Q203.67 0.59 203.69-1.08Q203.71-2.75 203.76-4.29Q203.81-5.82 203.90-7.16Q203.98-8.50 204.10-9.53L204.10-9.53Q204.14-9.82 204.35-10Q204.55-10.18 204.84-10.18L204.84-10.18Q205.14-10.18 205.35-9.96Q205.57-9.75 205.57-9.43L205.57-9.43Q205.57-9.32 205.50-8.67Q205.43-8.03 205.35-6.78Q205.27-5.53 205.21-3.68Q205.14-1.84 205.14 0.68ZM205.90-15.33L205.90-15.33Q205.90-15.61 205.70-15.81Q205.51-16.02 205.23-16.02L205.23-16.02Q204.96-16.02 204.76-15.81Q204.55-15.61 204.55-15.33L204.55-15.33Q204.55-15.06 204.76-14.86Q204.96-14.67 205.23-14.67L205.23-14.67Q205.51-14.67 205.70-14.86Q205.90-15.06 205.90-15.33ZM203.75 8.65L203.75 8.65Q203.75 7.66 203.73 6.66Q203.71 5.66 203.69 4.49L203.69 4.49Q202.48 5.96 201.63 7.38Q200.78 8.81 200.23 10.12Q199.69 11.43 199.44 12.60Q199.20 13.77 199.20 14.73L199.20 14.73Q199.20 15.27 199.28 15.83Q199.36 16.39 199.56 16.85Q199.77 17.30 200.12 17.59Q200.47 17.87 201.02 17.87L201.02 17.87Q201.23 17.87 201.52 17.77Q201.82 17.68 202.12 17.35Q202.42 17.03 202.71 16.43Q203.01 15.82 203.24 14.79Q203.48 13.77 203.61 12.27Q203.75 10.76 203.75 8.65Z M213.48-15.33L213.48-15.33Q213.48-14.59 212.96-14.07Q212.44-13.55 211.70-13.55L211.70-13.55Q210.96-13.55 210.44-14.07Q209.92-14.59 209.92-15.33L209.92-15.33Q209.92-15.70 210.06-16.03Q210.20-16.35 210.44-16.59Q210.68-16.84 211.01-16.97Q211.33-17.11 211.70-17.11L211.70-17.11Q212.07-17.11 212.39-16.97Q212.71-16.84 212.96-16.59Q213.20-16.35 213.34-16.03Q213.48-15.70 213.48-15.33ZM210.31-3.89L210.31-3.89Q210.31-6.70 210.66-9.49L210.66-9.49Q210.70-9.77 210.91-9.97Q211.11-10.18 211.45-10.18L211.45-10.18Q211.74-10.18 211.93-9.95Q212.13-9.73 212.13-9.43L212.13-9.43Q212.13-9.32 212.08-8.73Q212.03-8.14 211.96-7.33Q211.89-6.52 211.85-5.62Q211.80-4.71 211.80-3.95L211.80-3.95Q211.80-2.91 212.00-2.28Q212.21-1.64 212.53-1.29Q212.85-0.94 213.21-0.82Q213.57-0.70 213.91-0.70L213.91-0.70Q214.45-0.70 215.04-1.09Q215.63-1.48 216.24-2.19Q216.86-2.89 217.48-3.88Q218.11-4.86 218.71-6.07L218.71-6.07Q218.81-6.27 218.98-6.38Q219.16-6.48 219.38-6.48L219.38-6.48Q219.69-6.48 219.89-6.25Q220.10-6.02 220.10-5.74L220.10-5.74Q220.10-5.55 220.02-5.41L220.02-5.41Q219.79-4.96 219.43-4.32Q219.08-3.67 218.63-2.99Q218.18-2.30 217.65-1.63Q217.11-0.96 216.50-0.42Q215.90 0.12 215.23 0.45Q214.57 0.78 213.89 0.78L213.89 0.78Q213.01 0.78 212.34 0.41Q211.68 0.04 211.22-0.59Q210.76-1.21 210.54-2.06Q210.31-2.91 210.31-3.89ZM212.38-15.33L212.38-15.33Q212.38-15.61 212.18-15.81Q211.97-16.02 211.70-16.02L211.70-16.02Q211.43-16.02 211.23-15.81Q211.04-15.61 211.04-15.33L211.04-15.33Q211.04-15.06 211.23-14.86Q211.43-14.67 211.70-14.67L211.70-14.67Q211.97-14.67 212.18-14.86Q212.38-15.06 212.38-15.33Z"/></g>
</svg>
</g></g><g filter="url(#a2O-D20rgJ)"><g opacity="1" transform="rotate(0 205.361 108.2201)">
<svg width="98.4286" height="90" x="205.361" y="108.2201" version="1.1" preserveAspectRatio="none" viewBox="5 8.852999687194824 90 82.29301452636719">
  <g transform="matrix(1 0 0 1 0 0)"><defs><g id="id-HsFB6mEE60"><path d="M68.835,12.853C81.057,12.853,91,22.796,91,35.019c0,26.395-32.808,46.858-41.003,51.557C41.792,81.881,9,61.46,9,35.019  c0-12.222,9.944-22.166,22.166-22.166c6.047,0,11.699,2.396,15.916,6.747l2.828,2.918l0.074-0.074l0.091,0.092l2.844-2.934  C57.135,15.25,62.787,12.853,68.835,12.853 M68.835,8.853c-7.375,0-14.033,3.056-18.79,7.965l-0.046-0.046l-0.045,0.045  c-4.757-4.908-11.414-7.963-18.788-7.963C16.715,8.853,5,20.567,5,35.019C5,67.87,49.999,91.146,49.999,91.146S95,67.87,95,35.019  C95,20.567,83.285,8.853,68.835,8.853L68.835,8.853z"></path><path fill-rule="evenodd" clip-rule="evenodd" stroke-width="4" stroke-miterlimit="10" d="  M8.204,51.309"></path></g></defs><use class="icon3" xlink:href="#id-HsFB6mEE60"></use></g>
</svg>
</g></g><g filter="url(#i0NrGVRvc)"><g opacity="1" transform="rotate(0 205.361 108.2201)">
<svg width="98.4286" height="90" x="205.361" y="108.2201" version="1.1" preserveAspectRatio="none" viewBox="5 8.852999687194824 90 82.29301452636719">
  <g transform="matrix(1 0 0 1 0 0)"><defs><g id="id-LgOaV3zR0"><path d="M68.835,12.853C81.057,12.853,91,22.796,91,35.019c0,26.395-32.808,46.858-41.003,51.557C41.792,81.881,9,61.46,9,35.019  c0-12.222,9.944-22.166,22.166-22.166c6.047,0,11.699,2.396,15.916,6.747l2.828,2.918l0.074-0.074l0.091,0.092l2.844-2.934  C57.135,15.25,62.787,12.853,68.835,12.853 M68.835,8.853c-7.375,0-14.033,3.056-18.79,7.965l-0.046-0.046l-0.045,0.045  c-4.757-4.908-11.414-7.963-18.788-7.963C16.715,8.853,5,20.567,5,35.019C5,67.87,49.999,91.146,49.999,91.146S95,67.87,95,35.019  C95,20.567,83.285,8.853,68.835,8.853L68.835,8.853z"></path><path fill-rule="evenodd" clip-rule="evenodd" stroke-width="4" stroke-miterlimit="10" d="  M8.204,51.309"></path></g></defs><use class="companyName" xlink:href="#id-LgOaV3zR0"></use></g>
</svg>
</g></g></svg></svg>