<svg version="1.1" preserveAspectRatio="none" xmlns="http://www.w3.org/2000/svg" width="500" height="500" viewBox="0 0 500 500"><rect width="100%" height="100%" fill="#1C1C1C" fill-opacity="1"/><svg viewBox="102.7418 102.6957 366.6314 273.3043" width="333" height="248.2338716760212" x="83.5px" y="125.8831px" xmlns="http://www.w3.org/2000/svg" xmlns:xlink="http://www.w3.org/1999/xlink" preserveAspectRatio="none"><defs></defs><style>.companyName {fill:#EDEDED;fill-opacity:1;}.icon1 {fill:#EDEDED;fill-opacity:1;}.icon2 {fill:#F35F40;fill-opacity:1;}.icon3 {fill:#B2B2B1;fill-opacity:1;}.icon3-str {stroke:#B2B2B1;stroke-opacity:1;}</style><defs></defs><g opacity="1" transform="rotate(0 194.3997 102.6957)">
<svg width="183.3157" height="183.3043" x="194.3997" y="102.6957" version="1.1" preserveAspectRatio="none" viewBox="19.994735717773438 19.99949836730957 160.01051330566406 160.00050354003906">
  <g transform="matrix(1 0 0 1 0 0)"><g><g><defs><path d="M176.19 169.841a3.81 3.81 0 0 1-3.81-3.81v-40.635a3.81 3.81 0 1 1 7.62 0v40.635a3.809 3.809 0 0 1-3.81 3.81z" data-color="1" id="id-IptOCySn2"></path></defs><use class="icon1" xlink:href="#id-IptOCySn2"></use></g><g><defs><path d="M59.366 180c-10.503 0-19.048-8.545-19.048-19.048s8.545-19.048 19.048-19.048 19.048 8.545 19.048 19.048S69.869 180 59.366 180zm0-30.476c-6.302 0-11.429 5.127-11.429 11.429s5.127 11.429 11.429 11.429 11.429-5.127 11.429-11.429-5.128-11.429-11.429-11.429z" data-color="1" id="id-IptOCySn3"></path></defs><use class="icon1" xlink:href="#id-IptOCySn3"></use></g><g><defs><path d="M140.635 180c-10.503 0-19.048-8.545-19.048-19.048s8.545-19.048 19.048-19.048c10.503 0 19.048 8.545 19.048 19.048S151.138 180 140.635 180zm0-30.476c-6.302 0-11.429 5.127-11.429 11.429s5.127 11.429 11.429 11.429 11.429-5.127 11.429-11.429-5.127-11.429-11.429-11.429z" data-color="1" id="id-IptOCySn4"></path></defs><use class="icon1" xlink:href="#id-IptOCySn4"></use></g><g><defs><path d="M176.19 169.841h-21.195a3.81 3.81 0 1 1 0-7.62h21.195a3.81 3.81 0 1 1 0 7.62z" data-color="1" id="id-IptOCySn5"></path></defs><use class="icon1" xlink:href="#id-IptOCySn5"></use></g><g><defs><path d="M126.277 169.841H73.723a3.81 3.81 0 1 1 0-7.62h52.554a3.81 3.81 0 1 1 0 7.62z" data-color="1" id="id-IptOCySn6"></path></defs><use class="icon1" xlink:href="#id-IptOCySn6"></use></g><g><defs><path d="M45.006 169.841H23.81a3.81 3.81 0 1 1 0-7.62h21.195a3.81 3.81 0 0 1 .001 7.62z" data-color="1" id="id-IptOCySn7"></path></defs><use class="icon1" xlink:href="#id-IptOCySn7"></use></g><g><defs><path d="M23.81 169.841a3.81 3.81 0 0 1-3.81-3.81v-81.27a3.81 3.81 0 1 1 7.62 0v81.27a3.81 3.81 0 0 1-3.81 3.81z" data-color="1" id="id-IptOCySn8"></path></defs><use class="icon1" xlink:href="#id-IptOCySn8"></use></g><g><defs><path d="M135.556 88.572H23.81a3.81 3.81 0 1 1 0-7.62h111.746c2.104 0 3.809 1.705 3.809 3.81s-1.705 3.81-3.809 3.81z" data-color="1" id="id-IptOCySn9"></path></defs><use class="icon1" xlink:href="#id-IptOCySn9"></use></g><g><defs><path d="M135.556 119.048a3.81 3.81 0 0 1-3.81-3.81V84.762a3.81 3.81 0 1 1 7.619 0v30.476a3.81 3.81 0 0 1-3.809 3.81z" data-color="1" id="id-IptOCySn10"></path></defs><use class="icon1" xlink:href="#id-IptOCySn10"></use></g><g><defs><path d="M145.714 129.206c-7.702 0-13.968-6.266-13.968-13.968a3.81 3.81 0 1 1 7.619 0 6.356 6.356 0 0 0 6.349 6.349 3.81 3.81 0 1 1 0 7.619z" data-color="1" id="id-IptOCySn11"></path></defs><use class="icon1" xlink:href="#id-IptOCySn11"></use></g><g><defs><path d="M176.19 129.206h-30.476a3.81 3.81 0 1 1 0-7.62h30.476a3.81 3.81 0 1 1 0 7.62z" data-color="1" id="id-IptOCySn12"></path></defs><use class="icon1" xlink:href="#id-IptOCySn12"></use></g><g><defs><path d="M115.238 119.048a3.81 3.81 0 0 1-3.81-3.81V84.762a3.81 3.81 0 1 1 7.62 0v30.476a3.81 3.81 0 0 1-3.81 3.81z" data-color="1" id="id-IptOCySn13"></path></defs><use class="icon1" xlink:href="#id-IptOCySn13"></use></g><g><defs><path d="M105.08 129.206a3.81 3.81 0 1 1 0-7.62 6.356 6.356 0 0 0 6.349-6.349 3.81 3.81 0 1 1 7.62 0c-.001 7.703-6.267 13.969-13.969 13.969z" data-color="1" id="id-IptOCySn14"></path></defs><use class="icon1" xlink:href="#id-IptOCySn14"></use></g><g><defs><path d="M105.08 129.206H23.81a3.81 3.81 0 1 1 0-7.62h81.269a3.81 3.81 0 0 1 .001 7.62z" data-color="1" id="id-IptOCySn15"></path></defs><use class="icon1" xlink:href="#id-IptOCySn15"></use></g><g><defs><path d="M69.524 129.206a3.81 3.81 0 0 1-3.81-3.81V84.762a3.81 3.81 0 1 1 7.62 0v40.635a3.81 3.81 0 0 1-3.81 3.809z" data-color="1" id="id-IptOCySn16"></path></defs><use class="icon1" xlink:href="#id-IptOCySn16"></use></g><g><defs><path d="M166.032 88.572a3.81 3.81 0 0 1-3.81-3.81c0-9.103-7.405-16.508-16.508-16.508a3.81 3.81 0 1 1 0-7.62c13.304 0 24.127 10.823 24.127 24.127a3.81 3.81 0 0 1-3.809 3.811z" data-color="1" id="id-IptOCySn17"></path></defs><use class="icon1" xlink:href="#id-IptOCySn17"></use></g><g><defs><path d="M145.714 68.254h-30.476a3.81 3.81 0 1 1 0-7.62h30.476a3.81 3.81 0 1 1 0 7.62z" data-color="1" id="id-IptOCySn18"></path></defs><use class="icon1" xlink:href="#id-IptOCySn18"></use></g><g><defs><path d="M115.241 68.254a3.805 3.805 0 0 1-3.051-1.524L81.715 26.095a3.81 3.81 0 0 1 6.095-4.571l30.476 40.635a3.81 3.81 0 0 1-3.045 6.095z" data-color="1" id="id-IptOCySn19"></path></defs><use class="icon1" xlink:href="#id-IptOCySn19"></use></g><g><defs><path d="M84.762 27.619H64.445a3.81 3.81 0 1 1 0-7.619h20.317a3.81 3.81 0 1 1 0 7.619z" data-color="1" id="id-IptOCySn20"></path></defs><use class="icon1" xlink:href="#id-IptOCySn20"></use></g><g><defs><path d="M84.765 68.255a3.81 3.81 0 0 1-3.41-2.107L61.038 25.514a3.81 3.81 0 0 1 6.814-3.408L88.17 62.741a3.81 3.81 0 0 1-3.405 5.514z" data-color="1" id="id-IptOCySn21"></path></defs><use class="icon1" xlink:href="#id-IptOCySn21"></use></g><g><defs><path d="M84.762 68.254H54.286a3.81 3.81 0 1 1 0-7.62h30.476a3.81 3.81 0 1 1 0 7.62z" data-color="1" id="id-IptOCySn22"></path></defs><use class="icon1" xlink:href="#id-IptOCySn22"></use></g><g><defs><path d="M54.286 68.254c-.975 0-1.95-.372-2.694-1.116L41.434 56.98a3.81 3.81 0 1 1 5.388-5.388L56.98 61.751a3.81 3.81 0 0 1-2.694 6.503z" data-color="1" id="id-IptOCySn23"></path></defs><use class="icon1" xlink:href="#id-IptOCySn23"></use></g><g><defs><path d="M44.128 58.095H23.81a3.81 3.81 0 1 1 0-7.62h20.317a3.81 3.81 0 0 1 .001 7.62z" data-color="1" id="id-IptOCySn24"></path></defs><use class="icon1" xlink:href="#id-IptOCySn24"></use></g><g><defs><path d="M176.19 129.206a3.81 3.81 0 0 1-3.81-3.81c0-20.306-16.52-36.825-36.825-36.825a3.81 3.81 0 1 1 0-7.62c24.507 0 44.444 19.937 44.444 44.444a3.808 3.808 0 0 1-3.809 3.811z" data-color="1" id="id-IptOCySn25"></path></defs><use class="icon1" xlink:href="#id-IptOCySn25"></use></g><g><defs><path d="M163.005 99.25a3.81 3.81 0 0 1-3.237-5.814 16.476 16.476 0 0 0 2.454-8.674 3.81 3.81 0 1 1 7.62 0c0 4.494-1.243 8.879-3.593 12.681a3.81 3.81 0 0 1-3.244 1.807z" data-color="1" id="id-IptOCySn26"></path></defs><use class="icon1" xlink:href="#id-IptOCySn26"></use></g><g><defs><path d="M33.969 88.572a3.81 3.81 0 0 1-3.81-3.81c0-9.259 0-9.259-9.756-28.772a3.81 3.81 0 0 1 6.814-3.408c10.164 20.328 10.561 21.122 10.561 32.18a3.81 3.81 0 0 1-3.809 3.81z" data-color="1" id="id-IptOCySn27"></path></defs><use class="icon1" xlink:href="#id-IptOCySn27"></use></g></g></g>
</svg>
</g><g opacity="1" transform="rotate(0 102.7418 326)">
<svg width="366.6314" height="50" x="102.7418" y="326" version="1.1" preserveAspectRatio="none" viewBox="0.84 -34.68 256.64000000000004 35">
  <g transform="matrix(1 0 0 1 0 0)" class="companyName"><path id="id-D6z1nYkh12" d="M9.68 0.32Q5 0.32 2.92-2Q0.84-4.32 0.84-9.48L0.84-9.48L0.84-12.84L7.60-12.84L7.60-8.56Q7.60-6 9.24-6L9.24-6Q10.16-6 10.52-6.54Q10.88-7.08 10.88-8.36L10.88-8.36Q10.88-10.04 10.48-11.14Q10.08-12.24 9.46-12.98Q8.84-13.72 7.24-15.28L7.24-15.28L4.28-18.24Q0.84-21.60 0.84-25.68L0.84-25.68Q0.84-30.08 2.86-32.38Q4.88-34.68 8.76-34.68L8.76-34.68Q13.40-34.68 15.44-32.22Q17.48-29.76 17.48-24.52L17.48-24.52L10.48-24.52L10.44-26.88Q10.44-27.56 10.06-27.96Q9.68-28.36 9-28.36L9-28.36Q8.20-28.36 7.80-27.92Q7.40-27.48 7.40-26.72L7.40-26.72Q7.40-25.04 9.32-23.24L9.32-23.24L13.32-19.40Q14.72-18.04 15.64-16.82Q16.56-15.60 17.12-13.94Q17.68-12.28 17.68-10L17.68-10Q17.68-4.92 15.82-2.30Q13.96 0.32 9.68 0.32L9.68 0.32Z M28.96 0L22.76 0L22.76-34.36L33.24-34.36L36.12-13.40L39-34.36L49.56-34.36L49.56 0L43.28 0L43.28-24.76L39.32 0L33.16 0L28.96-24.76L28.96 0Z M61.16 0L54.48 0L57.80-34.36L69.44-34.36L72.72 0L66.20 0L65.72-5.56L61.56-5.56L61.16 0ZM63.36-28.52L62.08-11.04L65.20-11.04L63.68-28.52L63.36-28.52Z M84.44 0L77.60 0L77.60-34.36L84.40-34.36L84.40-20.60L87.60-34.36L94.52-34.36L90.68-18.64L95.32 0L88.20 0L84.44-16.64L84.44 0Z M122.52 0L114.12 0L110.44-34.36L117.16-34.36L119.08-12.68L121.00-34.36L127.40-34.36L129.24-12.68L131.08-34.36L137.88-34.36L134.12 0L125.88 0L124.16-16.56L122.52 0Z M147.64 0L140.96 0L144.28-34.36L155.92-34.36L159.20 0L152.68 0L152.20-5.56L148.04-5.56L147.64 0ZM149.84-28.52L148.56-11.04L151.68-11.04L150.16-28.52L149.84-28.52Z M170.92 0L164.08 0L164.08-34.36L170.88-34.36L170.88-20.60L174.08-34.36L181-34.36L177.16-18.64L181.80 0L174.68 0L170.92-16.64L170.92 0Z M191.52 0L184.84 0L188.16-34.36L199.80-34.36L203.08 0L196.56 0L196.08-5.56L191.92-5.56L191.52 0ZM193.72-28.52L192.44-11.04L195.56-11.04L194.04-28.52L193.72-28.52Z M215.96 0.32Q212.20 0.32 209.94-2.04Q207.68-4.40 207.68-8.52L207.68-8.52L207.68-24.36Q207.68-29.48 209.72-32.08Q211.76-34.68 216.12-34.68L216.12-34.68Q219.92-34.68 222.24-32.60Q224.56-30.52 224.56-26.60L224.56-26.60L224.56-20.68L217.72-20.68L217.72-25.76Q217.72-27.24 217.36-27.80Q217.00-28.36 216.12-28.36L216.12-28.36Q215.20-28.36 214.86-27.72Q214.52-27.08 214.52-25.84L214.52-25.84L214.52-8.60Q214.52-7.24 214.92-6.62Q215.32-6 216.12-6L216.12-6Q217.72-6 217.72-8.60L217.72-8.60L217.72-14.80L224.64-14.80L224.64-8.32Q224.64 0.32 215.96 0.32L215.96 0.32Z M237.36 0.32Q235.00 0.32 233.08-0.60Q231.16-1.52 230.06-3.30Q228.96-5.08 228.96-7.60L228.96-7.60L228.96-16.20L235.72-16.20L235.72-8Q235.72-7.08 236.10-6.54Q236.48-6 237.28-6L237.28-6Q238.04-6 238.42-6.50Q238.80-7 238.80-7.92L238.80-7.92L238.80-34.36L245.72-34.36L245.72-8.60Q245.72-5.92 244.66-3.90Q243.60-1.88 241.70-0.78Q239.80 0.32 237.36 0.32L237.36 0.32Z M257.48 0L250.84 0L250.84-34.36L257.48-34.36L257.48 0Z"/></g>
</svg>
</g></svg></svg>