<svg version="1.1" preserveAspectRatio="none" xmlns="http://www.w3.org/2000/svg" width="500" height="500" viewBox="0 0 500 500"><rect width="100%" height="100%" fill="#012B28" fill-opacity="1"/><svg viewBox="304.9536 204.1755 380.3238 181.463" width="333" height="158.88350663303217" x="83.5px" y="170.5582px" xmlns="http://www.w3.org/2000/svg" xmlns:xlink="http://www.w3.org/1999/xlink" preserveAspectRatio="none"><defs></defs><style>.companyName {fill:#EBB42C;fill-opacity:1;}.icon2 {fill:#E7240E;fill-opacity:1;}.icon3 {fill:#B47049;fill-opacity:1;}.icon3-str {stroke:#B47049;stroke-opacity:1;}</style><defs></defs><g opacity="1" transform="rotate(0 304.9536 363.6385)">
<svg width="380.3238" height="22" x="304.9536" y="363.6385" version="1.1" preserveAspectRatio="none" viewBox="1.48 -28.48 500.64 28.96">
  <g transform="matrix(1 0 0 1 0 0)" class="companyName"><path id="id-D6z1nYkh12" d="M4.20-7.08L1.48-7.08Q1.56-5.36 2.38-3.96Q3.20-2.56 4.62-1.58Q6.04-0.60 7.96-0.06Q9.88 0.48 12.16 0.48L12.16 0.48Q14.48 0.48 16.34-0.08Q18.20-0.64 19.52-1.68Q20.84-2.72 21.56-4.20Q22.28-5.68 22.28-7.48L22.28-7.48Q22.28-9.96 21.04-11.54Q19.80-13.12 17.94-14.18Q16.08-15.24 13.90-15.96Q11.72-16.68 9.86-17.48Q8-18.28 6.76-19.32Q5.52-20.36 5.52-22.08L5.52-22.08Q5.52-23.04 5.94-23.88Q6.36-24.72 7.18-25.34Q8-25.96 9.20-26.34Q10.40-26.72 11.96-26.72L11.96-26.72Q14.56-26.72 16.38-25.62Q18.20-24.52 18.52-22.16L18.52-22.16L21.24-22.16Q21-23.64 20.16-24.82Q19.32-26 18.04-26.82Q16.76-27.64 15.14-28.06Q13.52-28.48 11.76-28.48L11.76-28.48Q9.92-28.48 8.26-28Q6.60-27.52 5.34-26.60Q4.08-25.68 3.34-24.28Q2.60-22.88 2.60-21.08L2.60-21.08Q2.60-18.72 3.80-17.28Q5-15.84 6.82-14.88Q8.64-13.92 10.76-13.24Q12.88-12.56 14.70-11.70Q16.52-10.84 17.72-9.60Q18.92-8.36 18.92-6.28L18.92-6.28Q18.92-3.68 17.02-2.48Q15.12-1.28 11.96-1.28L11.96-1.28Q9.44-1.28 7.92-1.94Q6.40-2.60 5.60-3.52Q4.80-4.44 4.52-5.42Q4.24-6.40 4.20-7.08L4.20-7.08Z M61.36-3.96L48.52-28L45.80-28L45.80 0L47.56 0L47.56-22.84L47.72-22.84L60.08 0.48L60.80 0.48L73.44-22.68L73.60-22.68L73.60 0L77.24 0L77.24-28L74.48-28L61.52-3.96L61.36-3.96Z M104.60-8.24L118.40-8.24L122.24 0L126.12 0L113.08-28L111.08-28L99.24 0L101.08 0L104.60-8.24ZM111.28-23.52L117.56-10.04L105.36-10.04L111.12-23.52L111.28-23.52Z M148.12-28L148.12 0L151.76 0L151.76-9.84L156.28-14.68L166.92 0L171.08 0L158.60-17.16L168.76-28L166.76-28L151.76-12.24L151.76-28L148.12-28Z M223.16-28L219.48-28L229.40 0L231.80 0L239.44-21.88L239.64-21.88L247.04 0L249.40 0L259.32-28L257.48-28L249.20-4.64L249.04-4.64L241.24-28L239.52-28L231.56-4.76L231.40-4.76L223.16-28Z M279.88-8.24L293.68-8.24L297.52 0L301.40 0L288.36-28L286.36-28L274.52 0L276.36 0L279.88-8.24ZM286.56-23.52L292.84-10.04L280.64-10.04L286.40-23.52L286.56-23.52Z M323.40-28L323.40 0L327.04 0L327.04-9.84L331.56-14.68L342.20 0L346.36 0L333.88-17.16L344.04-28L342.04-28L327.04-12.24L327.04-28L323.40-28Z M370.12-8.24L383.92-8.24L387.76 0L391.64 0L378.60-28L376.60-28L364.76 0L366.60 0L370.12-8.24ZM376.80-23.52L383.08-10.04L370.88-10.04L376.64-23.52L376.80-23.52Z M438.40-4.08L437.20-5.16Q433.12-1.32 427.52-1.32L427.52-1.32Q424.40-1.32 422.00-2.40Q419.60-3.48 418.00-5.28Q416.40-7.08 415.58-9.44Q414.76-11.80 414.76-14.36L414.76-14.36Q414.76-17.08 415.62-19.34Q416.48-21.60 418.04-23.24Q419.60-24.88 421.74-25.80Q423.88-26.72 426.40-26.72L426.40-26.72Q428.12-26.72 429.54-26.32Q430.96-25.92 432.06-25.28Q433.16-24.64 433.86-23.82Q434.56-23 434.84-22.16L434.84-22.16L437.80-22.16Q437.20-23.52 436.26-24.68Q435.32-25.84 433.92-26.68Q432.52-27.52 430.64-28Q428.76-28.48 426.36-28.48L426.36-28.48Q422.88-28.48 420.02-27.48Q417.16-26.48 415.12-24.62Q413.08-22.76 411.96-20.14Q410.84-17.52 410.84-14.28L410.84-14.28Q410.84-11.48 411.74-8.82Q412.64-6.16 414.52-4.10Q416.40-2.04 419.32-0.78Q422.24 0.48 426.28 0.48L426.28 0.48Q428.84 0.48 430.86 0Q432.88-0.48 434.38-1.18Q435.88-1.88 436.88-2.68Q437.88-3.48 438.40-4.08L438.40-4.08Z M471.28-28L467.64-28L467.64-7.80Q467.64-6.84 467.58-5.70Q467.52-4.56 467.12-3.58Q466.72-2.60 465.90-1.94Q465.08-1.28 463.56-1.28L463.56-1.28Q462.24-1.28 461.38-1.76Q460.52-2.24 460.02-2.96Q459.52-3.68 459.30-4.50Q459.08-5.32 459.08-5.96L459.08-5.96L455.60-5.96Q455.68-2.88 457.60-1.20Q459.52 0.48 463.36 0.48L463.36 0.48Q466.12 0.48 467.72-0.34Q469.32-1.16 470.10-2.42Q470.88-3.68 471.08-5.16Q471.28-6.64 471.28-7.92L471.28-7.92L471.28-28Z M502.12-28L498.48-28L498.48 0L502.12 0L502.12-28Z"/></g>
</svg>
</g><g opacity="1" transform="rotate(0 445.1155 204.1755)">
<svg width="100" height="99.463" x="445.1155" y="204.1755" version="1.1" preserveAspectRatio="none" viewBox="0 0.2700033187866211 99.99800109863281 99.46099853515625">
  <g transform="matrix(1 0 0 1 0 0)"><defs><g id="id-LgOaV3zR0"><g><path style="" d="M14.9,50.207H0c0.165-2.395,8.79-4.102,9.151-6.406   c0.377-2.391-7.454-6.73-6.725-8.982c0.744-2.292,9.638-1.199,10.718-3.317c1.093-2.139-5.006-8.695-3.603-10.624   c1.412-1.937,9.529,1.847,11.217,0.158c1.692-1.689-2.092-9.808-0.155-11.218c1.927-1.403,8.483,4.694,10.622,3.603   c2.118-1.081,1.026-9.972,3.318-10.716c2.254-0.731,6.59,7.1,8.982,6.724c2.326-0.367,4.044-9.159,6.476-9.159   c2.432,0,4.146,8.792,6.476,9.159c2.39,0.376,6.729-7.455,8.979-6.723c2.293,0.745,1.203,9.635,3.318,10.716   c2.141,1.092,8.697-5.005,10.626-3.603c1.933,1.41-1.849,9.527-0.161,11.218c1.689,1.69,9.809-2.094,11.217-0.157   c1.406,1.927-4.692,8.484-3.601,10.624c1.081,2.118,9.975,1.025,10.718,3.317c0.729,2.252-7.1,6.591-6.723,8.981   c0.36,2.305,8.982,4.012,9.148,6.406H85.102c-0.039-19.354-15.736-35.032-35.1-35.032C30.637,15.175,14.938,30.853,14.9,50.207z    M50.002,19.638c-16.901,0-30.6,13.68-30.639,30.569h61.277C80.602,33.317,66.898,19.638,50.002,19.638z M1.464,56.655   l61.088,2.599L3.282,65.295c0.793,2.578,1.795,5.065,2.984,7.442l66.734,2.839L12.125,81.78   c8.951,10.956,22.566,17.951,37.816,17.951c10.133,0,19.542-3.087,27.34-8.37l-53.206-2.265L87,82.685   c3.266-3.807,5.955-8.12,7.936-12.809L37.41,67.428l60.237-6.14c0.514-2.369,0.855-4.803,1.012-7.287H1.224   C1.279,54.893,1.361,55.777,1.464,56.655z" fill-rule="evenodd" clip-rule="evenodd"></path></g></g></defs><use class="companyName" xlink:href="#id-LgOaV3zR0"></use></g>
</svg>
</g></svg></svg>