<svg version="1.1" preserveAspectRatio="none" xmlns="http://www.w3.org/2000/svg" width="500" height="500" viewBox="0 0 500 500"><rect width="100%" height="100%" fill="#121212" fill-opacity="1"/><svg viewBox="26.1728 65.5559 392.099 258.0483" width="333" height="219.15405012509595" x="83.5px" y="140.423px" xmlns="http://www.w3.org/2000/svg" xmlns:xlink="http://www.w3.org/1999/xlink" preserveAspectRatio="none"><defs></defs><style>.companyName {fill:#E3E3E3;fill-opacity:1;}.icon1 {fill:#F1EC40;fill-opacity:1;}.icon2 {fill:#555555;fill-opacity:1;}.icon3 {fill:#AAAAAA;fill-opacity:1;}.icon3-str {stroke:#AAAAAA;stroke-opacity:1;}</style><defs></defs><g opacity="1" transform="rotate(0 26.1728 291.6042)">
<svg width="392.099" height="32" x="26.1728" y="291.6042" version="1.1" preserveAspectRatio="none" viewBox="1.875 -28.4078 352.8711 28.7985">
  <g transform="matrix(1 0 0 1 0 0)" class="companyName"><path id="id-D6z1nYkh12" d="M29.86-8.24L29.86-8.24Q29.86-6.74 29.48-5.54Q29.10-4.34 28.48-3.42Q27.85-2.50 27.01-1.86Q26.17-1.21 25.27-0.80Q24.38-0.39 23.45-0.20Q22.52 0 21.70 0L21.70 0L2.11 0L2.11-5.08L21.70-5.08Q23.16-5.08 23.97-5.94Q24.79-6.80 24.79-8.24L24.79-8.24Q24.79-8.95 24.57-9.53Q24.36-10.12 23.96-10.55Q23.55-10.98 22.98-11.21Q22.40-11.45 21.70-11.45L21.70-11.45L10.02-11.45Q8.79-11.45 7.36-11.88Q5.94-12.32 4.72-13.30Q3.50-14.28 2.69-15.86Q1.88-17.44 1.88-19.73L1.88-19.73Q1.88-22.01 2.69-23.58Q3.50-25.16 4.72-26.14Q5.94-27.13 7.36-27.57Q8.79-28.01 10.02-28.01L10.02-28.01L27.30-28.01L27.30-22.93L10.02-22.93Q8.57-22.93 7.76-22.05Q6.95-21.17 6.95-19.73L6.95-19.73Q6.95-18.26 7.76-17.41Q8.57-16.56 10.02-16.56L10.02-16.56L21.70-16.56L21.74-16.56Q22.56-16.54 23.48-16.34Q24.39-16.13 25.30-15.70Q26.21-15.27 27.03-14.62Q27.85-13.96 28.49-13.05Q29.12-12.13 29.49-10.94Q29.86-9.75 29.86-8.24Z M66.68-25.84L66.68 0L61.56 0L61.56-16.68L52.56-0.84Q52.23-0.23 51.63 0.08Q51.04 0.39 50.35 0.39L50.35 0.39Q49.69 0.39 49.11 0.08Q48.54-0.23 48.20-0.84L48.20-0.84L39.16-16.68L39.16 0L34.08 0L34.08-25.84Q34.08-26.72 34.60-27.40Q35.12-28.09 35.96-28.32L35.96-28.32Q36.37-28.42 36.78-28.39Q37.19-28.36 37.57-28.21Q37.95-28.07 38.26-27.80Q38.57-27.54 38.79-27.17L38.79-27.17L50.35-7.07L61.91-27.17Q62.36-27.91 63.15-28.22Q63.95-28.54 64.80-28.32L64.80-28.32Q65.63-28.09 66.15-27.40Q66.68-26.72 66.68-25.84L66.68-25.84Z M100.06-25.45L100.06 0L94.98 0L94.98-6.88L77.13-6.88L77.13 0L72.05 0L72.05-14.00Q72.05-17.07 73.11-19.65Q74.16-22.23 76.04-24.08Q77.91-25.94 80.47-26.97Q83.03-28.01 86.05-28.01L86.05-28.01L97.50-28.01Q98.03-28.01 98.50-27.81Q98.96-27.62 99.32-27.27Q99.67-26.91 99.86-26.45Q100.06-25.98 100.06-25.45L100.06-25.45ZM77.13-14.00L77.13-11.95L94.98-11.95L94.98-22.93L86.05-22.93Q85.82-22.93 85.07-22.86Q84.32-22.79 83.33-22.52Q82.34-22.25 81.25-21.68Q80.16-21.11 79.24-20.12Q78.32-19.12 77.72-17.63Q77.13-16.13 77.13-14.00L77.13-14.00Z M120.92-14.00L135.31 0L128.11 0L116.68-11.45L113.11-11.45L113.11-16.56L116.68-16.56L128.11-28.01L135.31-28.01L120.92-14.00ZM111.07-28.01L111.07 0L106.00 0L106.00-28.01L111.07-28.01Z M181.89-28.01L187.05-28.01L182.36-1.76Q182.21-0.98 181.66-0.41Q181.11 0.16 180.33 0.31L180.33 0.31Q179.53 0.45 178.82 0.14Q178.11-0.18 177.70-0.84L177.70-0.84L168.40-16.11L159.08-0.84Q158.75-0.27 158.17 0.04Q157.60 0.35 156.93 0.35L156.93 0.35Q156.02 0.35 155.31-0.23Q154.61-0.82 154.45-1.76L154.45-1.76L149.73-28.01L154.88-28.01L158.24-9.51L166.25-22.29Q166.58-22.85 167.16-23.16Q167.73-23.48 168.40-23.48L168.40-23.48Q169.06-23.48 169.63-23.16Q170.20-22.85 170.57-22.29L170.57-22.29L178.54-9.51L181.89-28.01Z M218.55-25.45L218.55 0L213.48 0L213.48-6.88L195.63-6.88L195.63 0L190.55 0L190.55-14.00Q190.55-17.07 191.60-19.65Q192.66-22.23 194.53-24.08Q196.41-25.94 198.96-26.97Q201.52-28.01 204.55-28.01L204.55-28.01L216.00-28.01Q216.52-28.01 216.99-27.81Q217.46-27.62 217.81-27.27Q218.16-26.91 218.36-26.45Q218.55-25.98 218.55-25.45L218.55-25.45ZM195.63-14.00L195.63-11.95L213.48-11.95L213.48-22.93L204.55-22.93Q204.32-22.93 203.56-22.86Q202.81-22.79 201.83-22.52Q200.84-22.25 199.75-21.68Q198.65-21.11 197.73-20.12Q196.82-19.12 196.22-17.63Q195.63-16.13 195.63-14.00L195.63-14.00Z M239.41-14.00L253.81 0L246.60 0L235.18-11.45L231.60-11.45L231.60-16.56L235.18-16.56L246.60-28.01L253.81-28.01L239.41-14.00ZM229.57-28.01L229.57 0L224.49 0L224.49-28.01L229.57-28.01Z M284.47-25.45L284.47 0L279.39 0L279.39-6.88L261.54-6.88L261.54 0L256.46 0L256.46-14.00Q256.46-17.07 257.52-19.65Q258.57-22.23 260.45-24.08Q262.32-25.94 264.88-26.97Q267.44-28.01 270.47-28.01L270.47-28.01L281.91-28.01Q282.44-28.01 282.91-27.81Q283.38-27.62 283.73-27.27Q284.08-26.91 284.28-26.45Q284.47-25.98 284.47-25.45L284.47-25.45ZM261.54-14.00L261.54-11.95L279.39-11.95L279.39-22.93L270.47-22.93Q270.23-22.93 269.48-22.86Q268.73-22.79 267.74-22.52Q266.76-22.25 265.66-21.68Q264.57-21.11 263.65-20.12Q262.73-19.12 262.14-17.63Q261.54-16.13 261.54-14.00L261.54-14.00Z M315.45-5.08L315.45 0L297.13 0Q296.43 0 295.62-0.17Q294.80-0.33 294.01-0.68Q293.22-1.04 292.50-1.59Q291.78-2.15 291.22-2.94Q290.66-3.73 290.33-4.78Q290-5.82 290-7.13L290-7.13L290-20.88Q290-21.58 290.17-22.39Q290.33-23.20 290.68-23.99Q291.04-24.79 291.60-25.51Q292.17-26.23 292.96-26.79Q293.75-27.34 294.79-27.68Q295.82-28.01 297.13-28.01L297.13-28.01L315.45-28.01L315.45-22.93L297.13-22.93Q296.13-22.93 295.61-22.40Q295.08-21.88 295.08-20.84L295.08-20.84L295.08-7.13Q295.08-6.15 295.62-5.62Q296.15-5.08 297.13-5.08L297.13-5.08L315.45-5.08Z M343.81-28.01L343.81-7.13Q343.81-5.61 343.28-4.30Q342.75-2.99 341.81-2.03Q340.86-1.07 339.55-0.54Q338.24 0 336.70 0L336.70 0L318.09 0L318.09-5.08L336.70-5.08Q337.64-5.08 338.16-5.62Q338.69-6.15 338.69-7.13L338.69-7.13L338.69-28.01L343.81-28.01Z M354.75-28.01L354.75 0L349.67 0L349.67-28.01L354.75-28.01Z"/></g>
</svg>
</g><g opacity="1" transform="rotate(0 124.1975 65.5559)">
<svg width="196.0495" height="196.0483" x="124.1975" y="65.5559" version="1.1" preserveAspectRatio="none" viewBox="20 20 160.00100708007812 160">
  <g transform="matrix(1 0 0 1 0 0)"><g><g><defs><path d="M166.667 120.229 164 117.562V98.896l-2.844-2.844-2.667-16-2.701-2.7-2.667-13.333-2.667-2.667-2.309-11.552c1.545-1.459 2.522-3.512 2.522-5.8 0-3.472-2.236-6.404-5.333-7.509V20H140v16.491c-3.098 1.104-5.333 4.037-5.333 7.509 0 2.288.977 4.34 2.522 5.8l-2.311 11.552-2.667 2.667-2.667 13.333-2.701 2.7-2.667 16-2.844 2.844v18.667l-2.667 2.667v29.333L116 152.229v6.438H84v-6.438l-2.667-2.667v-29.333l-2.667-2.667V98.896l-2.844-2.844-2.667-16-2.701-2.7-2.667-13.333-2.667-2.667L62.811 49.8c1.545-1.459 2.522-3.512 2.522-5.8 0-3.472-2.236-6.404-5.333-7.509V20h-5.333v16.491c-3.097 1.104-5.333 4.037-5.333 7.509 0 2.288.977 4.34 2.522 5.8l-2.311 11.552-2.667 2.667-2.667 13.333-2.7 2.7-2.667 16L36 98.896v18.667l-2.667 2.667v29.333l-2.667 2.667V180H36v-25.562l1.104-1.104H44V180h5.333v-25.562l1.104-1.104h13.792l1.104 1.104V180h5.333v-26.667h6.896l1.104 1.104V180H84v-4.083L98.299 164h3.401l14.3 11.917V180h5.333v-25.562l1.104-1.104h6.896V180h5.333v-25.562l1.104-1.104h13.792l1.104 1.104V180H156v-26.667h6.896l1.104 1.104V180h5.333v-27.771l-2.667-2.667v-29.333zm-113.563 1.104h8.458l1.104 1.104V148H52v-25.562l1.104-1.105zM72.229 100l1.104 1.104V116h-8v-16h6.896zm-16.458 0h3.125L60 101.104V116h-5.333v-14.896L55.771 100zM68 121.333h6.896L76 122.438V148h-8v-26.667zm2.185-26.666H60V81.333h6.896l1.281 1.281 2.008 12.053zM64.748 76H60V65.333h1.562l1.315 1.315L64.748 76zm-7.415-34.667A2.67 2.67 0 0 1 60 44a2.67 2.67 0 0 1-2.667 2.667A2.67 2.67 0 0 1 54.666 44a2.67 2.67 0 0 1 2.667-2.667zM57.815 52l1.6 8h-4.163l1.6-8h.963zm-4.711 13.333h1.562V76h-4.748l1.871-9.352 1.315-1.315zm-5.333 16h6.896v13.333H44.481l2.008-12.052 1.282-1.281zM42.437 100h6.896v16h-8v-14.896L42.437 100zm-2.666 21.333h6.896V148h-8v-25.562l1.104-1.105zM84 168.972V164h5.967L84 168.972zM110.033 164H116v4.972L110.033 164zm28.405-42.667h8.458l1.104 1.104V148h-10.667v-25.562l1.105-1.105zM157.562 100l1.104 1.104V116h-8v-16h6.896zm-16.458 0h3.125l1.104 1.104V116H140v-14.896l1.104-1.104zm12.229 21.333h6.896l1.104 1.104V148h-8v-26.667zm2.186-26.666h-10.186V81.333h6.896l1.281 1.281 2.009 12.053zM150.081 76h-4.748V65.333h1.562l1.315 1.315L150.081 76zm-7.414-34.667A2.67 2.67 0 0 1 145.334 44a2.67 2.67 0 0 1-2.667 2.667A2.67 2.67 0 0 1 140 44a2.67 2.67 0 0 1 2.667-2.667zM143.148 52l1.6 8h-4.163l1.6-8h.963zm-4.71 13.333H140V76h-4.748l1.87-9.352 1.316-1.315zm-5.334 16H140v13.333h-10.186l2.009-12.052 1.281-1.281zM127.771 100h6.896v16h-8v-14.896l1.104-1.104zm-2.667 21.333H132V148h-8v-25.562l1.104-1.105z" data-color="1" id="id-LgOaV3zR2"></path></defs><use class="icon1" xlink:href="#id-LgOaV3zR2"></use></g><g><defs><path d="M92 62.667h24c4.411 0 8-3.588 8-8s-3.589-8-8-8A2.67 2.67 0 0 1 113.333 44c0-4.411-3.589-8-8-8h-2.667c-4.411 0-8 3.589-8 8a2.67 2.67 0 0 1-2.667 2.667c-4.411 0-8 3.589-8 8s3.589 8 8.001 8zM92 52c4.411 0 8-3.588 8-8a2.67 2.67 0 0 1 2.667-2.667h2.667A2.67 2.67 0 0 1 108.001 44c0 4.411 3.588 8 8 8a2.67 2.67 0 0 1 2.667 2.667 2.67 2.67 0 0 1-2.667 2.667H92a2.67 2.67 0 0 1-2.667-2.667A2.67 2.67 0 0 1 92 52z" data-color="1" id="id-LgOaV3zR3"></path></defs><use class="icon1" xlink:href="#id-LgOaV3zR3"></use></g><g><defs><path d="M85.333 94.667h24A6.674 6.674 0 0 0 116 88v-2.667a6.674 6.674 0 0 0-6.667-6.667h-2.667a1.335 1.335 0 0 1-1.333-1.333 6.674 6.674 0 0 0-6.667-6.667H96a6.674 6.674 0 0 0-6.667 6.667c0 .736-.599 1.333-1.333 1.333h-2.667a6.674 6.674 0 0 0-6.667 6.667V88a6.675 6.675 0 0 0 6.667 6.667zM84 85.333c0-.735.599-1.333 1.333-1.333H88a6.674 6.674 0 0 0 6.667-6.667c0-.735.599-1.333 1.333-1.333h2.667c.734 0 1.333.598 1.333 1.333A6.674 6.674 0 0 0 106.667 84h2.667c.734 0 1.333.598 1.333 1.333V88c0 .736-.599 1.333-1.333 1.333h-24A1.335 1.335 0 0 1 84 88v-2.667z" data-color="1" id="id-LgOaV3zR4"></path></defs><use class="icon1" xlink:href="#id-LgOaV3zR4"></use></g><g><defs><path d="M173.333 65.333h-2.667A1.335 1.335 0 0 1 169.333 64a6.674 6.674 0 0 0-6.667-6.667H156v5.333h6.667c.734 0 1.333.598 1.333 1.333a6.674 6.674 0 0 0 6.667 6.667h2.667c.734 0 1.333.598 1.333 1.333v2.667c0 .736-.599 1.333-1.333 1.333h-12v5.333h12a6.674 6.674 0 0 0 6.667-6.667V72a6.676 6.676 0 0 0-6.668-6.667z" data-color="1" id="id-LgOaV3zR5"></path></defs><use class="icon1" xlink:href="#id-LgOaV3zR5"></use></g><g><defs><path d="M41.333 60H26.667a1.335 1.335 0 0 1-1.333-1.333V56c0-.736.599-1.333 1.333-1.333A6.674 6.674 0 0 0 33.334 48v-2.667c0-.736.599-1.333 1.333-1.333H44v-5.333h-9.333A6.674 6.674 0 0 0 28 45.334V48c0 .736-.599 1.333-1.333 1.333A6.674 6.674 0 0 0 20 56v2.667a6.674 6.674 0 0 0 6.667 6.667h14.667V60z" data-color="1" id="id-LgOaV3zR6"></path></defs><use class="icon1" xlink:href="#id-LgOaV3zR6"></use></g></g></g>
</svg>
</g></svg></svg>